<svg width="120" height="120" viewBox="0 0 120 120" fill="none" xmlns="http://www.w3.org/2000/svg">
<g filter="url(#filter0_d)">
<ellipse cx="60" cy="60" rx="50" ry="50" transform="rotate(-180 60 60)" fill="white"/>
<path d="M11 60C11 32.9381 32.9381 11 60 11C87.062 11 109 32.9381 109 60C109 87.062 87.062 109 60 109C32.938 109 11 87.0619 11 60Z" stroke="#58B7FF" stroke-width="2"/>
</g>
<g filter="url(#filter1_d)">
<path d="M53.0156 66.9677H49.8667C48.8859 66.9677 48.0879 66.1565 48.0879 65.1586V63.3736C48.0879 63.2681 48.0145 63.1769 47.906 63.1465C46.8141 62.844 45.7613 62.399 44.7768 61.8244C44.6875 61.7723 44.5822 61.7827 44.5154 61.8506L43.2618 63.1256C42.9258 63.4673 42.4793 63.6552 42.004 63.6552C41.5292 63.6552 41.0822 63.4673 40.7463 63.1256L38.5197 60.861C38.1837 60.5194 37.9985 60.0648 37.9985 59.5819C37.9985 59.0985 38.1837 58.6439 38.5197 58.3027L39.7729 57.0277C39.8401 56.9598 39.8503 56.8527 39.7987 56.7618C39.2341 55.7606 38.7966 54.6897 38.4992 53.5793C38.4693 53.4689 38.3795 53.3943 38.2759 53.3943H36.5208C35.54 53.3943 34.7419 52.5826 34.7419 51.5851V48.3826C34.7419 47.3851 35.54 46.5734 36.5208 46.5734H38.2759C38.3795 46.5734 38.4693 46.4993 38.4992 46.3884C38.7966 45.2784 39.2341 44.2076 39.7991 43.2059C39.8503 43.1151 39.8401 43.008 39.7733 42.9401L38.5197 41.6651C38.1837 41.3238 37.9985 40.8692 37.9985 40.3859C37.9985 39.903 38.1837 39.4484 38.5197 39.1067L40.7463 36.8421C41.0822 36.5004 41.5288 36.3125 42.004 36.3125C42.4793 36.3125 42.9262 36.5004 43.2622 36.8425L44.5154 38.1171C44.5822 38.185 44.6871 38.1955 44.7768 38.1434C45.7613 37.5688 46.8137 37.1242 47.9056 36.8213C48.0149 36.7909 48.0879 36.6996 48.0879 36.5942V34.8092C48.0879 33.8117 48.8859 33 49.8667 33H53.0156C53.9963 33 54.7944 33.8117 54.7944 34.8092V36.5942C54.7944 36.6996 54.8673 36.7909 54.9763 36.8209C56.0677 37.1238 57.1206 37.5688 58.1051 38.1434C58.1948 38.1955 58.2997 38.185 58.3669 38.1171L59.6201 36.8421C60.3153 36.1354 61.4407 36.135 62.136 36.8425L62.3715 37.0821C63.1069 37.8296 61.9955 38.9621 61.2593 38.2134C61.1142 38.0859 60.9282 37.7746 60.7328 37.9738L59.4792 39.2484C58.9122 39.825 58.0252 39.9413 57.3222 39.5309C56.4536 39.0242 55.5249 38.6317 54.5625 38.3646C53.7727 38.1459 53.2208 37.4175 53.2208 36.5938V34.8092C53.2208 34.6938 53.1286 34.6 53.0151 34.6H49.8663C49.7532 34.6 49.6611 34.6938 49.6611 34.8092V36.5942C49.6611 37.4179 49.1092 38.1459 48.3193 38.365C47.3566 38.6321 46.4278 39.0242 45.5593 39.5309C44.8567 39.9413 43.9697 39.825 43.4027 39.2484L42.1495 37.9738C42.0995 37.923 42.0429 37.9125 42.004 37.9125C41.9651 37.9125 41.9086 37.923 41.859 37.9738L39.632 40.2384C39.5824 40.2888 39.5717 40.3467 39.5717 40.3859C39.5717 40.4255 39.5824 40.4834 39.632 40.5338L40.8856 41.8088C41.4526 42.3855 41.5669 43.2872 41.1634 44.0022C40.6652 44.8859 40.2793 45.8301 40.0166 46.8093C39.8016 47.6126 39.0854 48.1734 38.2759 48.1734H36.5208C36.4073 48.1734 36.3151 48.2676 36.3151 48.3826V51.5851C36.3151 51.7006 36.4073 51.7943 36.5208 51.7943H38.2759C39.0854 51.7943 39.8016 52.3551 40.0171 53.1585C40.2793 54.1381 40.6652 55.0822 41.1634 55.9656C41.5669 56.6806 41.4526 57.5823 40.8856 58.1589L39.6324 59.4339C39.5824 59.4844 39.5721 59.5423 39.5721 59.5819C39.5721 59.621 39.5828 59.6789 39.6324 59.7298L41.859 61.994C41.9393 62.0756 42.0696 62.076 42.1499 61.994L43.4031 60.7194C43.9701 60.1427 44.8571 60.0264 45.5601 60.4369C46.4286 60.9435 47.357 61.336 48.3197 61.6031C49.1096 61.8219 49.6615 62.5502 49.6615 63.374V65.1586C49.6615 65.274 49.7536 65.3677 49.8667 65.3677H53.0156C53.129 65.3677 53.2212 65.274 53.2212 65.1586V63.374C53.2212 62.5502 53.7731 61.8219 54.5629 61.6031C55.5679 61.3248 55.98 62.8685 54.9767 63.1465C54.8677 63.1769 54.7944 63.2681 54.7944 63.374V65.1586C54.7944 66.1561 53.9963 66.9677 53.0156 66.9677Z" fill="#58B7FF"/>
<path d="M43.4517 49.9864C43.4517 44.7944 49.0615 41.2354 54.231 43.0683C55.2729 43.4384 54.674 44.9061 53.6299 44.536C49.5501 43.0887 45.1387 45.9072 45.1387 49.9864C45.1387 53.3046 48.1418 56.0045 51.7776 55.8061C52.8894 55.7436 52.9936 57.3127 51.877 57.3741C47.2923 57.6251 43.4517 54.2227 43.4517 49.9864Z" fill="#58B7FF"/>
<path d="M77.8266 68.2624L69.9111 66.7151V64.749C72.1339 63.2246 73.3375 61.0658 73.5995 58.6411C74.7534 58.5491 75.664 57.576 75.664 56.3931V54.7791C77.5451 53.957 77.2912 51.1974 75.3011 50.7319V50.109C75.3011 44.5083 70.7843 39.9677 65.2132 39.9677H64.3673C58.7958 39.9677 54.2794 44.5083 54.2794 50.1085V50.7319C52.2901 51.1969 52.0346 53.957 53.9165 54.7791V56.3931C53.9165 57.576 54.8271 58.5491 55.981 58.6411C56.2097 60.7565 57.1959 62.6928 58.7519 64.0393C59.0497 64.2974 59.3557 64.5338 59.6694 64.749V66.7151L51.7539 68.2624C47.5776 69.0788 44.3225 71.4454 44.3225 75.8121V83.7998C44.3225 85.5672 45.7478 87 47.506 87H82.0745C83.8327 87 85.258 85.5672 85.258 83.7998V75.8121C85.258 71.4597 82.0229 69.0825 77.8266 68.2624ZM71.3242 68.5913C70.757 69.4204 69.8899 70.6859 68.9533 72.0487C68.5716 72.6046 67.8868 72.6753 67.6191 72.5142L66.385 71.7702C67.5886 71.0556 69.254 69.8286 69.7593 68.2853L71.3242 68.5913ZM64.79 70.8544C63.6036 70.254 61.2383 68.7704 61.2318 67.3683C61.2318 67.3663 61.2318 67.3642 61.2318 67.3622V65.6161C63.5055 66.6018 66.0721 66.603 68.3487 65.6161V67.3622C68.3487 68.7668 65.9777 70.2535 64.79 70.8544ZM55.8418 50.1085C55.8418 46.8871 57.6191 44.0751 60.2399 42.6116V43.5961C60.2399 44.6342 61.8023 44.6359 61.8023 43.5961V41.9347C62.5034 41.7118 63.2431 41.5781 64.0088 41.5461V45.4294C64.0088 46.4675 65.5713 46.4691 65.5713 45.4294V41.5461C66.337 41.5781 67.0771 41.7118 67.7782 41.9347V43.5961C67.7782 44.6342 69.3406 44.6359 69.3406 43.5961V42.6116C71.9614 44.0751 73.7387 46.8871 73.7387 50.1085V50.6763H55.8418V50.1085ZM54.762 52.2469H74.8185C75.5672 52.2469 75.5664 53.3844 74.8185 53.3844H54.762C54.0129 53.3844 54.0137 52.2469 54.762 52.2469ZM57.4938 57.846C57.4848 57.4189 57.1378 57.0774 56.7126 57.0774C56.5824 57.0451 55.4785 57.2815 55.4785 56.3931V54.9554H74.1016V56.3931C74.1016 57.2799 72.9684 57.0525 72.8675 57.0774C72.4427 57.0774 72.0957 57.4189 72.0863 57.846C72.0444 59.8092 71.2144 61.6327 69.8094 62.8491C66.8257 65.4316 62.7548 65.432 59.7711 62.8491C58.3657 61.6327 57.5357 59.8092 57.4938 57.846ZM59.8208 68.2853C60.3265 69.8286 61.9915 71.0556 63.1955 71.7702C61.9585 72.4361 62.046 72.6353 61.4841 72.5686C61.1346 72.5265 60.8209 72.3309 60.6207 72.0397C59.6865 70.6801 58.8223 69.4183 58.2559 68.5913L59.8208 68.2853ZM50.807 85.4294H47.5056C46.6104 85.4294 45.8845 84.6997 45.8845 83.7998V75.8121C45.8845 73.4586 46.9481 71.8315 49.2812 70.7076C49.3756 71.1256 50.807 75.0313 50.807 80.4888V85.4294ZM64.0088 85.4294H52.3695V80.4888C52.3695 74.5756 50.8843 70.7681 50.7383 70.1235C51.6505 69.8188 50.973 70.0535 56.5836 68.9181C58.1961 71.2736 61.2054 75.6685 62.9794 78.2032C63.6532 79.1657 64.0088 80.2962 64.0088 81.4729V85.4294ZM64.79 78.1885C64.6346 77.8822 64.4568 77.5852 64.2574 77.2997C63.6577 76.4432 62.8793 75.3192 62.0672 74.1409C62.3085 74.0873 62.544 73.994 62.765 73.8611L64.79 72.6402L66.8155 73.8611C67.0361 73.994 67.272 74.0873 67.5133 74.1409C66.7012 75.3184 65.9228 76.4424 65.3231 77.2997C65.1233 77.5852 64.9455 77.8822 64.79 78.1885ZM83.6956 83.7998C83.6956 84.6997 82.9701 85.4294 82.0745 85.4294H78.7731V82.4664C78.7731 81.4283 77.2106 81.4267 77.2106 82.4664V85.4294H65.5713V81.4729C65.5713 80.2962 65.9273 79.1657 66.6007 78.2036C67.6098 76.7618 71.7645 70.735 72.9969 68.9181C78.6046 70.0531 77.9284 69.8183 78.8418 70.1235C78.7283 70.6065 77.4137 74.1981 77.2322 79.2929C77.1948 80.3334 78.7564 80.3845 78.7934 79.3493C78.9692 74.419 80.1723 71.2466 80.2989 70.7076C82.632 71.8315 83.6956 73.4586 83.6956 75.8117V83.7998Z" fill="#58B7FF"/>
</g>
<defs>
<filter id="filter0_d" x="0" y="0" width="120" height="120" filterUnits="userSpaceOnUse" color-interpolation-filters="sRGB">
<feFlood flood-opacity="0" result="BackgroundImageFix"/>
<feColorMatrix in="SourceAlpha" type="matrix" values="0 0 0 0 0 0 0 0 0 0 0 0 0 0 0 0 0 0 127 0" result="hardAlpha"/>
<feMorphology radius="2" operator="dilate" in="SourceAlpha" result="effect1_dropShadow"/>
<feOffset/>
<feGaussianBlur stdDeviation="4"/>
<feColorMatrix type="matrix" values="0 0 0 0 0 0 0 0 0 0.465833 0 0 0 0 0.895833 0 0 0 0.16 0"/>
<feBlend mode="normal" in2="BackgroundImageFix" result="effect1_dropShadow"/>
<feBlend mode="normal" in="SourceGraphic" in2="effect1_dropShadow" result="shape"/>
</filter>
<filter id="filter1_d" x="26.7419" y="25" width="66.516" height="70" filterUnits="userSpaceOnUse" color-interpolation-filters="sRGB">
<feFlood flood-opacity="0" result="BackgroundImageFix"/>
<feColorMatrix in="SourceAlpha" type="matrix" values="0 0 0 0 0 0 0 0 0 0 0 0 0 0 0 0 0 0 127 0" result="hardAlpha"/>
<feOffset/>
<feGaussianBlur stdDeviation="4"/>
<feComposite in2="hardAlpha" operator="out"/>
<feColorMatrix type="matrix" values="0 0 0 0 0 0 0 0 0 0.466667 0 0 0 0 0.894118 0 0 0 0.25 0"/>
<feBlend mode="normal" in2="BackgroundImageFix" result="effect1_dropShadow"/>
<feBlend mode="normal" in="SourceGraphic" in2="effect1_dropShadow" result="shape"/>
</filter>
</defs>
</svg>
