<svg width="120" height="120" viewBox="0 0 120 120" fill="none" xmlns="http://www.w3.org/2000/svg">
<g filter="url(#filter0_di)">
<ellipse cx="60" cy="60" rx="50" ry="50" transform="rotate(-180 60 60)" fill="white"/>
<path d="M11 60C11 32.9381 32.9381 11 60 11C87.062 11 109 32.9381 109 60C109 87.062 87.062 109 60 109C32.938 109 11 87.0619 11 60Z" stroke="#58B7FF" stroke-width="2"/>
</g>
<g filter="url(#filter1_d)">
<path d="M85.3387 51.5161C86.806 51.5161 88 50.3221 88 48.8548V34.6613C88 33.194 86.806 32 85.3387 32H71.1452C69.6779 32 68.4839 33.194 68.4839 34.6613V40.871H60.5C60.5 39.8925 59.7043 39.0968 58.7258 39.0968H58.6735C58.2299 35.111 54.8439 32 50.7419 32H43.6452C39.5432 32 36.1563 35.111 35.7136 39.0968H35.6613C34.6828 39.0968 33.8871 39.8925 33.8871 40.871V42.6452C33.8871 43.6236 34.6828 44.4194 35.6613 44.4194V48.9169C35.6613 52.9621 38.2055 56.6329 41.9934 58.054L42.7581 58.3406V60.6142C36.9795 62.4948 33 67.9239 33 74.0502C33 79.2335 37.2173 83.4516 42.4015 83.4516H50.7419V84.3387C50.7419 85.806 51.936 87 53.4032 87H64.0484C65.5156 87 66.7097 85.806 66.7097 84.3387V78.129H68.5291C68.9789 83.095 73.1606 87 78.2419 87C83.6222 87 88 82.6222 88 77.2419C88 72.1606 84.095 67.9789 79.129 67.5291V61.9981C80.159 61.6308 80.9032 60.655 80.9032 59.5C80.9032 58.345 80.159 57.3692 79.129 57.0019V51.5161H85.3387ZM75.5806 33.7742H80.9032V37.3226H75.5806V33.7742ZM70.2581 34.6613C70.2581 34.1716 70.6564 33.7742 71.1452 33.7742H73.8065V39.0968H82.6774V33.7742H85.3387C85.8275 33.7742 86.2258 34.1716 86.2258 34.6613V48.8548C86.2258 49.3445 85.8275 49.7419 85.3387 49.7419H71.1452C70.6564 49.7419 70.2581 49.3445 70.2581 48.8548V34.6613ZM43.6452 33.7742H50.7419C53.8636 33.7742 56.4477 36.0931 56.8806 39.0968H37.5065C37.9394 36.0931 40.5235 33.7742 43.6452 33.7742V33.7742ZM35.6613 40.871H58.7258V42.6452L35.6613 42.646V40.871ZM56.7946 48.8868C56.8966 49.0411 56.9516 49.2212 56.9516 49.4075C56.9516 49.8227 56.721 50.1961 56.3493 50.3824L55.1774 50.9679V54.1774C55.1774 55.6447 53.9834 56.8387 52.5161 56.8387H48.0806V60.9788L46.3065 63.3438L44.5323 60.9788V53.7339L41.8124 51.6935C41.2935 51.305 40.9839 50.6849 40.9839 50.0373C40.9839 48.8965 41.9127 47.9677 43.0535 47.9677H44.5323V44.4194H55.1774V46.4623L56.7946 48.8868ZM49.3652 62.2225L49.6419 62.2589L49.1771 66.438L47.4774 64.7392L49.3652 62.2225ZM43.3134 62.3103L45.1355 64.7401L43.4358 66.4389L42.9887 62.4141C43.0952 62.3751 43.2052 62.3449 43.3134 62.3103ZM42.6161 56.3925C39.5175 55.2313 37.4355 52.2267 37.4355 48.9169V44.4194H42.7581V46.2051C40.7763 46.3568 39.2097 48.0174 39.2097 50.0373C39.2097 51.2402 39.7845 52.3899 40.747 53.1129L42.7581 54.621V56.4457L42.6161 56.3925ZM34.7742 74.0493C34.7742 69.4426 37.353 65.2927 41.2881 63.1735L42.0803 70.304L46.3065 66.0769L50.5326 70.304L51.3975 62.5188C55.236 63.2648 58.457 65.7594 60.1469 69.2581H53.4032C51.936 69.2581 50.7419 70.4521 50.7419 71.9194V74.6019C49.877 74.6543 49.0671 75.002 48.4479 75.6203L47.7134 76.3548H43.7525C42.7909 76.3548 41.8488 75.9645 41.1675 75.2841C40.4773 74.594 40.0968 73.6758 40.0968 72.6991V70.1452H38.3226V72.6991C38.3226 74.1504 38.8877 75.5139 39.9131 76.5385C40.9395 77.564 42.303 78.129 43.7525 78.129H47.1935V81.6774H42.4015C38.1957 81.6774 34.7742 78.2559 34.7742 74.0493V74.0493ZM48.9677 77.6092L49.7023 76.8747C50.0385 76.5394 50.4838 76.3548 50.9575 76.3548H52.5161C53.4946 76.3548 54.2903 77.1506 54.2903 78.129V79.9032C54.2903 80.8817 53.4946 81.6774 52.5161 81.6774H48.9677V77.6092ZM64.9355 84.3387C64.9355 84.8284 64.5372 85.2258 64.0484 85.2258H53.4032C52.9144 85.2258 52.5161 84.8284 52.5161 84.3387V83.4516C54.4731 83.4516 56.0645 81.8602 56.0645 79.9032V78.129C56.0645 76.1721 54.4731 74.5806 52.5161 74.5806V71.9194C52.5161 71.4297 52.9144 71.0323 53.4032 71.0323H64.0484C64.5372 71.0323 64.9355 71.4297 64.9355 71.9194V84.3387ZM86.2258 77.2419C86.2258 81.6446 82.6437 85.2258 78.2419 85.2258C73.8402 85.2258 70.2581 81.6446 70.2581 77.2419C70.2581 72.8393 73.8402 69.2581 78.2419 69.2581C82.6437 69.2581 86.2258 72.8393 86.2258 77.2419ZM78.2419 60.3871C77.7531 60.3871 77.3548 59.9897 77.3548 59.5C77.3548 59.0103 77.7531 58.6129 78.2419 58.6129C78.7307 58.6129 79.129 59.0103 79.129 59.5C79.129 59.9897 78.7307 60.3871 78.2419 60.3871ZM77.3548 57.0019C76.3249 57.3692 75.5806 58.345 75.5806 59.5C75.5806 60.655 76.3249 61.6308 77.3548 61.9981V67.5291C72.6816 67.9531 68.9523 71.6816 68.5291 76.3548H66.7097V71.9194C66.7097 70.4521 65.5156 69.2581 64.0484 69.2581H62.0888C60.1673 64.5919 55.9377 61.3088 50.899 60.6364L49.8548 60.4971V58.6129H52.5161C54.9619 58.6129 56.9516 56.6231 56.9516 54.1774V52.0644L57.1432 51.9694C58.119 51.4798 58.7258 50.4995 58.7258 49.4075C58.7258 48.8708 58.5688 48.3501 58.2707 47.903L56.9516 45.9248V44.4194H58.7258C59.7043 44.4194 60.5 43.6236 60.5 42.6452H68.4839V48.8548C68.4839 50.3221 69.6779 51.5161 71.1452 51.5161H77.3548V57.0019Z" fill="#58B7FF"/>
<path d="M56.0645 72.8065H61.387V74.5807H56.0645V72.8065Z" fill="#58B7FF"/>
</g>
<defs>
<filter id="filter0_di" x="0" y="0" width="120" height="120" filterUnits="userSpaceOnUse" color-interpolation-filters="sRGB">
<feFlood flood-opacity="0" result="BackgroundImageFix"/>
<feColorMatrix in="SourceAlpha" type="matrix" values="0 0 0 0 0 0 0 0 0 0 0 0 0 0 0 0 0 0 127 0" result="hardAlpha"/>
<feMorphology radius="2" operator="dilate" in="SourceAlpha" result="effect1_dropShadow"/>
<feOffset/>
<feGaussianBlur stdDeviation="4"/>
<feColorMatrix type="matrix" values="0 0 0 0 0 0 0 0 0 0.465833 0 0 0 0 0.895833 0 0 0 0.16 0"/>
<feBlend mode="normal" in2="BackgroundImageFix" result="effect1_dropShadow"/>
<feBlend mode="normal" in="SourceGraphic" in2="effect1_dropShadow" result="shape"/>
<feColorMatrix in="SourceAlpha" type="matrix" values="0 0 0 0 0 0 0 0 0 0 0 0 0 0 0 0 0 0 127 0" result="hardAlpha"/>
<feMorphology radius="8" operator="erode" in="SourceAlpha" result="effect2_innerShadow"/>
<feOffset dx="6"/>
<feGaussianBlur stdDeviation="8"/>
<feComposite in2="hardAlpha" operator="arithmetic" k2="-1" k3="1"/>
<feColorMatrix type="matrix" values="0 0 0 0 0.875 0 0 0 0 0.875 0 0 0 0 0.875 0 0 0 0.25 0"/>
<feBlend mode="normal" in2="shape" result="effect2_innerShadow"/>
</filter>
<filter id="filter1_d" x="25" y="24" width="71" height="71" filterUnits="userSpaceOnUse" color-interpolation-filters="sRGB">
<feFlood flood-opacity="0" result="BackgroundImageFix"/>
<feColorMatrix in="SourceAlpha" type="matrix" values="0 0 0 0 0 0 0 0 0 0 0 0 0 0 0 0 0 0 127 0" result="hardAlpha"/>
<feOffset/>
<feGaussianBlur stdDeviation="4"/>
<feComposite in2="hardAlpha" operator="out"/>
<feColorMatrix type="matrix" values="0 0 0 0 0 0 0 0 0 0.466667 0 0 0 0 0.894118 0 0 0 0.16 0"/>
<feBlend mode="normal" in2="BackgroundImageFix" result="effect1_dropShadow"/>
<feBlend mode="normal" in="SourceGraphic" in2="effect1_dropShadow" result="shape"/>
</filter>
</defs>
</svg>
