<svg width="120" height="120" viewBox="0 0 120 120" fill="none" xmlns="http://www.w3.org/2000/svg">
<g filter="url(#filter0_d)">
<path d="M11 60C11 32.9381 32.9381 11 60 11C87.062 11 109 32.9381 109 60C109 87.062 87.062 109 60 109C32.938 109 11 87.0619 11 60Z" stroke="#58B7FF" stroke-width="2"/>
</g>
<g filter="url(#filter1_d)">
<path d="M79.5876 33H44.0876C42.9111 33.0013 41.7832 33.4693 40.9513 34.3012C40.1194 35.1331 39.6514 36.261 39.6501 37.4375V77.375H36.9876C36.7522 77.375 36.5265 77.4685 36.36 77.6349C36.1936 77.8014 36.1001 78.0271 36.1001 78.2625V81.8125C36.1014 82.989 36.5694 84.1169 37.4013 84.9488C38.2332 85.7807 39.3611 86.2487 40.5376 86.25H72.4876C73.6641 86.2487 74.792 85.7807 75.6239 84.9488C76.4558 84.1169 76.9238 82.989 76.9251 81.8125V41.875H83.1376C83.373 41.875 83.5987 41.7815 83.7652 41.6151C83.9316 41.4486 84.0251 41.2229 84.0251 40.9875V37.4375C84.0238 36.261 83.5558 35.1331 82.7239 34.3012C81.892 33.4693 80.7641 33.0013 79.5876 33ZM40.5376 84.475C39.8317 84.4742 39.1549 84.1934 38.6558 83.6943C38.1567 83.1952 37.8759 82.5184 37.8751 81.8125V79.15H68.0501V81.8125C68.049 82.7732 68.3614 83.7079 68.9397 84.475H40.5376ZM75.1501 81.8125C75.1501 82.5186 74.8696 83.1959 74.3703 83.6952C73.871 84.1945 73.1937 84.475 72.4876 84.475C71.7815 84.475 71.1042 84.1945 70.6049 83.6952C70.1056 83.1959 69.8251 82.5186 69.8251 81.8125V78.2625C69.8251 78.0271 69.7316 77.8014 69.5652 77.6349C69.3987 77.4685 69.173 77.375 68.9376 77.375H41.4251V37.4375C41.4259 36.7316 41.7067 36.0548 42.2058 35.5557C42.7049 35.0566 43.3817 34.7758 44.0876 34.775H76.04C75.4616 35.542 75.1491 36.4768 75.1501 37.4375V81.8125ZM82.2501 40.1H76.9251V37.4375C76.9251 36.7314 77.2056 36.0541 77.7049 35.5548C78.2042 35.0555 78.8815 34.775 79.5876 34.775C80.2937 34.775 80.971 35.0555 81.4703 35.5548C81.9696 36.0541 82.2501 36.7314 82.2501 37.4375V40.1Z" fill="#58B7FF"/>
<path d="M57.9939 52.525C58.8716 52.525 59.7295 52.2647 60.4592 51.7771C61.189 51.2895 61.7578 50.5965 62.0936 49.7857C62.4295 48.9748 62.5174 48.0826 62.3461 47.2218C62.1749 46.361 61.7523 45.5703 61.1317 44.9497C60.5111 44.3291 59.7204 43.9065 58.8596 43.7353C57.9988 43.564 57.1066 43.6519 56.2957 43.9878C55.4849 44.3236 54.7918 44.8924 54.3043 45.6222C53.8167 46.3519 53.5564 47.2098 53.5564 48.0875C53.5577 49.264 54.0257 50.3919 54.8576 51.2238C55.6895 52.0557 56.8174 52.5237 57.9939 52.525ZM57.9939 45.425C58.5205 45.425 59.0353 45.5811 59.4731 45.8737C59.911 46.1663 60.2522 46.5821 60.4537 47.0686C60.6553 47.5551 60.708 48.0904 60.6052 48.6069C60.5025 49.1234 60.2489 49.5978 59.8766 49.9702C59.5042 50.3425 59.0298 50.5961 58.5133 50.6988C57.9969 50.8016 57.4615 50.7488 56.975 50.5473C56.4885 50.3458 56.0727 50.0045 55.7801 49.5667C55.4876 49.1289 55.3314 48.6141 55.3314 48.0875C55.3322 47.3816 55.613 46.7048 56.1121 46.2057C56.6112 45.7066 57.288 45.4258 57.9939 45.425Z" fill="#58B7FF"/>
<path d="M66.7505 58.8452C66.0348 58.1334 65.4675 57.2868 65.0812 56.3542C64.6949 55.4217 64.4975 54.4218 64.5002 53.4125C64.5 53.3448 64.492 53.2774 64.4766 53.2116C64.555 53.1314 64.6276 53.0456 64.6937 52.9549C64.932 52.6314 65.0788 52.2497 65.1184 51.8499C65.1581 51.4501 65.0892 51.047 64.9191 50.6831C64.8691 50.5723 64.8621 50.4468 64.8997 50.3312C64.9373 50.2156 65.0167 50.1181 65.1223 50.058L65.1278 50.0549C65.476 49.8579 65.7657 49.572 65.9673 49.2265C66.1689 48.8809 66.2752 48.4881 66.2753 48.088C66.2753 47.688 66.1692 47.2951 65.9678 46.9494C65.7664 46.6038 65.4768 46.3178 65.1287 46.1207L65.1223 46.117C65.0166 46.0566 64.9372 45.9589 64.8997 45.843C64.8622 45.7271 64.8694 45.6013 64.9198 45.4904C65.0869 45.1259 65.154 44.7234 65.1142 44.3244C65.0744 43.9253 64.9291 43.544 64.6933 43.2196C64.4575 42.8952 64.1396 42.6394 63.7723 42.4784C63.405 42.3175 63.0015 42.2571 62.6032 42.3035C62.4824 42.3169 62.3609 42.2847 62.2626 42.2133C62.1642 42.1418 62.0961 42.0363 62.0715 41.9173L62.0702 41.9113C61.9906 41.5191 61.8082 41.1551 61.5418 40.8565C61.2754 40.5579 60.9345 40.3353 60.5539 40.2116C60.1733 40.0879 59.7667 40.0674 59.3757 40.1522C58.9846 40.2371 58.623 40.4243 58.328 40.6946L58.3269 40.6957L58.3229 40.6994C58.2328 40.7814 58.1153 40.8268 57.9935 40.8266C57.8716 40.8263 57.7543 40.7806 57.6645 40.6983C57.37 40.4273 57.009 40.2394 56.6181 40.1536C56.2273 40.0679 55.8207 40.0874 55.4399 40.2103C55.059 40.3331 54.7177 40.5549 54.4506 40.8528C54.1835 41.1508 54.0004 41.5143 53.9198 41.9063L53.9174 41.9174C53.8925 42.0365 53.824 42.1421 53.7254 42.2135C53.6268 42.2849 53.5051 42.3169 53.3842 42.3034C52.9858 42.2572 52.5823 42.3178 52.2151 42.479C51.8479 42.6402 51.5302 42.8962 51.2946 43.2207C51.059 43.5452 50.9139 43.9265 50.8744 44.3256C50.8348 44.7247 50.9021 45.1271 51.0693 45.4915C51.1194 45.6023 51.1263 45.7278 51.0887 45.8435C51.0511 45.9591 50.9717 46.0565 50.8661 46.1167L50.8607 46.1198C50.5125 46.3167 50.2228 46.6026 50.0212 46.9481C49.8196 47.2937 49.7133 47.6866 49.7132 48.0866C49.7131 48.4867 49.8192 48.8796 50.0206 49.2252C50.2221 49.5709 50.5117 49.8568 50.8598 50.054L50.8661 50.0576C50.9719 50.118 51.0513 50.2158 51.0888 50.3317C51.1262 50.4476 51.1191 50.5733 51.0687 50.6842C50.8989 51.048 50.8302 51.4509 50.87 51.8504C50.9098 52.2499 51.0565 52.6314 51.2948 52.9545C51.4979 53.2362 51.7631 53.4673 52.0699 53.63C52.0204 55.5924 51.2163 57.4602 49.825 58.8449L47.8976 60.7721C47.7647 60.905 47.6774 61.0768 47.6483 61.2626C47.6193 61.4483 47.65 61.6385 47.7361 61.8057C47.8221 61.9729 47.959 62.1085 48.1271 62.1928C48.2951 62.2772 48.4856 62.306 48.6711 62.2751L53.1485 61.5289L53.8674 65.1233C53.9028 65.3005 53.9916 65.4627 54.1217 65.5882C54.2518 65.7136 54.4171 65.7964 54.5955 65.8253C54.7739 65.8543 54.957 65.828 55.1201 65.7502C55.2832 65.6723 55.4186 65.5465 55.5083 65.3895L57.9292 61.1531C58.0588 60.9262 58.1777 60.6938 58.2877 60.4576C58.3978 60.6938 58.5166 60.9262 58.6463 61.1531L61.0671 65.3895C61.1568 65.5465 61.2922 65.6723 61.4554 65.7502C61.6185 65.828 61.8015 65.8543 61.9799 65.8253C62.1583 65.7964 62.3236 65.7136 62.4537 65.5882C62.5839 65.4627 62.6726 65.3005 62.708 65.1233L63.4269 61.5289L67.9043 62.2751C68.0898 62.306 68.2803 62.2772 68.4484 62.1928C68.6164 62.1085 68.7533 61.9729 68.8394 61.8057C68.9254 61.6385 68.9561 61.4483 68.9271 61.2626C68.898 61.0768 68.8107 60.905 68.6778 60.7721L66.7505 58.8452ZM51.7355 48.5104C51.6605 48.4682 51.598 48.4067 51.5546 48.3324C51.5111 48.2581 51.4882 48.1736 51.4882 48.0875C51.4882 48.0014 51.5111 47.9169 51.5546 47.8425C51.598 47.7682 51.6605 47.7068 51.7355 47.6646L51.7411 47.6614C52.2318 47.3801 52.6001 46.9261 52.7741 46.388C52.9481 45.8498 52.9154 45.2661 52.6823 44.7508C52.6463 44.6724 52.6319 44.5858 52.6405 44.5C52.6492 44.4141 52.6805 44.3321 52.7314 44.2624C52.7822 44.1928 52.8507 44.1379 52.9299 44.1035C53.009 44.0691 53.0958 44.0564 53.1815 44.0667C53.7426 44.1292 54.307 43.9805 54.7645 43.6496C55.222 43.3187 55.5399 42.8292 55.6562 42.2767L55.6585 42.2656C55.6755 42.1811 55.7148 42.1026 55.7722 42.0383C55.8296 41.9739 55.9031 41.9261 55.9852 41.8996C56.0672 41.8731 56.1548 41.8689 56.239 41.8875C56.3232 41.9061 56.401 41.9468 56.4642 42.0053C56.8828 42.3865 57.4286 42.5978 57.9948 42.5978C58.5609 42.5978 59.1067 42.3865 59.5253 42.0053L59.5267 42.0042C59.59 41.9459 59.6677 41.9056 59.7518 41.8872C59.8359 41.8689 59.9234 41.8732 60.0053 41.8998C60.0871 41.9264 60.1604 41.9743 60.2177 42.0386C60.2749 42.1029 60.3141 42.1812 60.3311 42.2656L60.3323 42.2717C60.4482 42.8253 60.7662 43.3159 61.2242 43.6477C61.6823 43.9795 62.2475 44.1288 62.8096 44.0664C62.8953 44.0565 62.9821 44.0695 63.061 44.1042C63.14 44.1389 63.2082 44.194 63.2588 44.2639C63.3094 44.3338 63.3404 44.4158 63.3487 44.5017C63.357 44.5875 63.3423 44.674 63.3061 44.7523C63.0735 45.2673 63.0411 45.8505 63.215 46.3882C63.389 46.9259 63.757 47.3796 64.2472 47.6608L64.2535 47.6645C64.3285 47.7067 64.391 47.7681 64.4344 47.8424C64.4779 47.9167 64.5008 48.0013 64.5008 48.0874C64.5008 48.1735 64.4779 48.258 64.4344 48.3323C64.391 48.4066 64.3285 48.4681 64.2535 48.5103L64.2479 48.5135C63.7572 48.7947 63.3889 49.2487 63.2149 49.7869C63.0409 50.325 63.0736 50.9087 63.3067 51.424C63.3427 51.5025 63.3571 51.5891 63.3485 51.6749C63.3398 51.7607 63.3085 51.8427 63.2576 51.9124C63.2068 51.9821 63.1383 52.037 63.0591 52.0714C62.98 52.1058 62.8932 52.1185 62.8075 52.1082C62.2463 52.0455 61.6819 52.1942 61.2244 52.5251C60.7669 52.8561 60.449 53.3456 60.3328 53.8982L60.3305 53.9093C60.3135 53.9938 60.2742 54.0722 60.2168 54.1366C60.1594 54.2009 60.0859 54.2488 60.0038 54.2753C59.9218 54.3018 59.8342 54.306 59.75 54.2874C59.6658 54.2688 59.588 54.2281 59.5248 54.1695C59.1058 53.7883 58.5597 53.5772 57.9933 53.5774C57.4269 53.5776 56.881 53.7891 56.4623 54.1706C56.399 54.2289 56.3213 54.2693 56.2372 54.2876C56.1531 54.306 56.0656 54.3016 55.9838 54.275C55.9019 54.2484 55.8286 54.2005 55.7713 54.1363C55.7141 54.072 55.6749 53.9936 55.6579 53.9093L55.6567 53.9032C55.5409 53.3495 55.223 52.8589 54.7649 52.527C54.3068 52.1952 53.7415 52.0459 53.1794 52.1084C53.0937 52.1184 53.0069 52.1053 52.928 52.0706C52.8491 52.0359 52.7808 51.9808 52.7302 51.911C52.6796 51.8411 52.6486 51.759 52.6403 51.6732C52.632 51.5874 52.6467 51.5009 52.6829 51.4226C52.9155 50.9076 52.9481 50.3244 52.7742 49.7867C52.6003 49.249 52.2325 48.7953 51.7424 48.514L51.7355 48.5104ZM56.3879 60.2733L55.1431 62.4517L54.7205 60.3384C54.6753 60.1125 54.544 59.913 54.3544 59.7821C54.1647 59.6512 53.9316 59.5992 53.7043 59.6371L51.1109 60.0697C52.7127 58.4613 53.6772 56.3268 53.8258 54.0617C53.8711 54.1193 53.9024 54.1865 53.9174 54.2582L53.9187 54.2642C53.9928 54.6287 54.1558 54.9693 54.3931 55.2557C54.6305 55.5421 54.9348 55.7656 55.2792 55.9062C55.6236 56.0468 55.9973 56.1002 56.3673 56.0618C56.7373 56.0233 57.0921 55.8941 57.4002 55.6857V56.4615C57.3996 57.7985 57.0508 59.1122 56.3879 60.2733ZM62.8711 59.6371C62.6438 59.5992 62.4107 59.6512 62.221 59.7821C62.0314 59.913 61.9001 60.1125 61.8549 60.3384L61.4323 62.4517L60.1875 60.2733C59.5247 59.1122 59.1758 57.7985 59.1752 56.4615V55.9714C59.3914 56.0407 59.6169 56.0762 59.8439 56.0768C60.0849 56.0764 60.3243 56.038 60.5533 55.9632C60.9346 55.8426 61.2765 55.6217 61.5431 55.3235C61.8097 55.0254 61.9913 54.6611 62.0687 54.2687L62.071 54.2576C62.0957 54.1383 62.1641 54.0326 62.2628 53.9611C62.3614 53.8897 62.4833 53.8577 62.6043 53.8715C62.6487 53.8766 62.693 53.8799 62.7366 53.8826C62.8461 56.2121 63.8184 58.4174 65.4645 60.0693L62.8711 59.6371Z" fill="#58B7FF"/>
<path d="M57.9548 71.1625C58.5675 71.1625 59.0642 70.6658 59.0642 70.0531C59.0642 69.4404 58.5675 68.9438 57.9548 68.9438C57.3421 68.9438 56.8455 69.4404 56.8455 70.0531C56.8455 70.6658 57.3421 71.1625 57.9548 71.1625Z" fill="#58B7FF"/>
<path d="M54.1829 71.1625C54.7956 71.1625 55.2922 70.6658 55.2922 70.0531C55.2922 69.4404 54.7956 68.9438 54.1829 68.9438C53.5702 68.9438 53.0735 69.4404 53.0735 70.0531C53.0735 70.6658 53.5702 71.1625 54.1829 71.1625Z" fill="#58B7FF"/>
<path d="M61.7266 71.1625C62.3393 71.1625 62.8359 70.6658 62.8359 70.0531C62.8359 69.4404 62.3393 68.9438 61.7266 68.9438C61.1139 68.9438 60.6172 69.4404 60.6172 70.0531C60.6172 70.6658 61.1139 71.1625 61.7266 71.1625Z" fill="#58B7FF"/>
</g>
<defs>
<filter id="filter0_d" x="0" y="0" width="120" height="120" filterUnits="userSpaceOnUse" color-interpolation-filters="sRGB">
<feFlood flood-opacity="0" result="BackgroundImageFix"/>
<feColorMatrix in="SourceAlpha" type="matrix" values="0 0 0 0 0 0 0 0 0 0 0 0 0 0 0 0 0 0 127 0" result="hardAlpha"/>
<feMorphology radius="2" operator="dilate" in="SourceAlpha" result="effect1_dropShadow"/>
<feOffset/>
<feGaussianBlur stdDeviation="4"/>
<feColorMatrix type="matrix" values="0 0 0 0 0 0 0 0 0 0.465833 0 0 0 0 0.895833 0 0 0 0.16 0"/>
<feBlend mode="normal" in2="BackgroundImageFix" result="effect1_dropShadow"/>
<feBlend mode="normal" in="SourceGraphic" in2="effect1_dropShadow" result="shape"/>
</filter>
<filter id="filter1_d" x="28.1001" y="25" width="63.925" height="69.25" filterUnits="userSpaceOnUse" color-interpolation-filters="sRGB">
<feFlood flood-opacity="0" result="BackgroundImageFix"/>
<feColorMatrix in="SourceAlpha" type="matrix" values="0 0 0 0 0 0 0 0 0 0 0 0 0 0 0 0 0 0 127 0" result="hardAlpha"/>
<feOffset/>
<feGaussianBlur stdDeviation="4"/>
<feComposite in2="hardAlpha" operator="out"/>
<feColorMatrix type="matrix" values="0 0 0 0 0 0 0 0 0 0.466667 0 0 0 0 0.894118 0 0 0 0.16 0"/>
<feBlend mode="normal" in2="BackgroundImageFix" result="effect1_dropShadow"/>
<feBlend mode="normal" in="SourceGraphic" in2="effect1_dropShadow" result="shape"/>
</filter>
</defs>
</svg>
