<svg width="120" height="120" viewBox="0 0 120 120" fill="none" xmlns="http://www.w3.org/2000/svg">
<g filter="url(#filter0_d)">
<path d="M11 60C11 32.9381 32.9381 11 60 11C87.062 11 109 32.9381 109 60C109 87.062 87.062 109 60 109C32.938 109 11 87.0619 11 60Z" stroke="#58B7FF" stroke-width="2"/>
</g>
<g filter="url(#filter1_d)">
<path d="M79.8688 39H39.581C35.4008 39 32 42.4008 32 46.581V72.5731C32 76.7533 35.4008 80.1541 39.581 80.1541H61.6129C62.2109 80.1541 62.6959 79.6692 62.6959 79.0711C62.6959 78.4731 62.2109 77.9881 61.6129 77.9881H39.581C36.5952 77.9881 34.166 75.5589 34.166 72.5731V46.581C34.166 43.5952 36.5952 41.166 39.581 41.166H79.8688C82.8546 41.166 85.2838 43.5952 85.2838 46.581V72.5731C85.2838 75.5589 82.8546 77.9881 79.8688 77.9881H71.9483C71.3503 77.9881 70.8653 78.4731 70.8653 79.0711V84.904L64.2667 78.3053C64.0635 78.1023 63.7881 77.9881 63.5009 77.9881H60.9162C60.3182 77.9881 59.8332 78.4731 59.8332 79.0711C59.8332 79.6692 60.3182 80.1541 60.9162 80.1541H63.0523L71.1825 88.2843C71.3897 88.4915 71.6666 88.6017 71.9485 88.6016C72.088 88.6016 72.2288 88.5746 72.3628 88.5191C72.7674 88.3515 73.0313 87.9566 73.0313 87.5186V80.1541H79.8688C84.0489 80.1541 87.4498 76.7533 87.4498 72.5731V46.581C87.4498 42.4008 84.0489 39 79.8688 39Z" fill="#58B7FF"/>
<path d="M56.0712 78.3054C55.8699 78.1038 55.5905 77.988 55.3057 77.988C55.0207 77.988 54.7415 78.1039 54.54 78.3054C54.3384 78.5068 54.2227 78.7862 54.2227 79.071C54.2227 79.3559 54.3385 79.6353 54.54 79.8366C54.7414 80.0382 55.0207 80.154 55.3057 80.154C55.5905 80.154 55.8699 80.0382 56.0712 79.8366C56.2728 79.6353 56.3887 79.3559 56.3887 79.071C56.3887 78.7862 56.2727 78.5068 56.0712 78.3054Z" fill="#58B7FF"/>
<path d="M81.0075 47.8152C80.6785 47.6203 80.2707 47.6135 79.9352 47.7972L69.409 53.5639V53.1115C69.409 50.3467 67.1596 48.0973 64.3948 48.0973H42.7994C40.0346 48.0973 37.7852 50.3467 37.7852 53.1115V66.0427C37.7852 68.8075 40.0346 71.0569 42.7994 71.0569H64.3947C67.1595 71.0569 69.4089 68.8075 69.4089 66.0427V65.5903L79.9351 71.357C80.0973 71.4458 80.2765 71.4901 80.4555 71.4901C80.6466 71.4901 80.8375 71.4396 81.0075 71.3389C81.3366 71.1439 81.5385 70.7898 81.5385 70.4071V48.7471C81.5385 48.3645 81.3366 48.0103 81.0075 47.8152ZM67.2429 55.3923V63.762V66.0427C67.2429 67.6132 65.9651 68.8909 64.3947 68.8909H42.7994C41.2289 68.8909 39.9512 67.6132 39.9512 66.0427V65.8585H48.122C48.72 65.8585 49.205 65.3735 49.205 64.7755C49.205 64.1775 48.72 63.6925 48.122 63.6925H39.9512V53.1115C39.9512 51.541 41.2289 50.2633 42.7994 50.2633H64.3947C65.9651 50.2633 67.2429 51.541 67.2429 53.1115V55.3923ZM79.3725 68.5789L69.4089 63.1205V56.0337L79.3725 50.5753V68.5789Z" fill="#58B7FF"/>
<path d="M51.8871 63.6926H51.8764C51.2784 63.6926 50.7988 64.1776 50.7988 64.7756C50.7988 65.3737 51.2891 65.8586 51.8871 65.8586C52.4852 65.8586 52.9701 65.3737 52.9701 64.7756C52.9701 64.1776 52.4852 63.6926 51.8871 63.6926Z" fill="#58B7FF"/>
</g>
<defs>
<filter id="filter0_d" x="0" y="0" width="120" height="120" filterUnits="userSpaceOnUse" color-interpolation-filters="sRGB">
<feFlood flood-opacity="0" result="BackgroundImageFix"/>
<feColorMatrix in="SourceAlpha" type="matrix" values="0 0 0 0 0 0 0 0 0 0 0 0 0 0 0 0 0 0 127 0" result="hardAlpha"/>
<feMorphology radius="2" operator="dilate" in="SourceAlpha" result="effect1_dropShadow"/>
<feOffset/>
<feGaussianBlur stdDeviation="4"/>
<feColorMatrix type="matrix" values="0 0 0 0 0 0 0 0 0 0.465833 0 0 0 0 0.895833 0 0 0 0.16 0"/>
<feBlend mode="normal" in2="BackgroundImageFix" result="effect1_dropShadow"/>
<feBlend mode="normal" in="SourceGraphic" in2="effect1_dropShadow" result="shape"/>
</filter>
<filter id="filter1_d" x="24" y="31" width="71.4498" height="65.6016" filterUnits="userSpaceOnUse" color-interpolation-filters="sRGB">
<feFlood flood-opacity="0" result="BackgroundImageFix"/>
<feColorMatrix in="SourceAlpha" type="matrix" values="0 0 0 0 0 0 0 0 0 0 0 0 0 0 0 0 0 0 127 0" result="hardAlpha"/>
<feOffset/>
<feGaussianBlur stdDeviation="4"/>
<feComposite in2="hardAlpha" operator="out"/>
<feColorMatrix type="matrix" values="0 0 0 0 0 0 0 0 0 0.466667 0 0 0 0 0.894118 0 0 0 0.16 0"/>
<feBlend mode="normal" in2="BackgroundImageFix" result="effect1_dropShadow"/>
<feBlend mode="normal" in="SourceGraphic" in2="effect1_dropShadow" result="shape"/>
</filter>
</defs>
</svg>
