<svg width="120" height="120" viewBox="0 0 120 120" fill="none" xmlns="http://www.w3.org/2000/svg">
<g filter="url(#filter0_di)">
<ellipse cx="60" cy="60" rx="50" ry="50" transform="rotate(-180 60 60)" fill="white"/>
<path d="M11 60C11 32.9381 32.9381 11 60 11C87.062 11 109 32.9381 109 60C109 87.062 87.062 109 60 109C32.938 109 11 87.0619 11 60Z" stroke="#58B7FF" stroke-width="2"/>
</g>
<g filter="url(#filter1_d)">
<path d="M54.5267 48.107H65.4859C65.5881 48.1071 65.6894 48.087 65.7839 48.0479C65.8784 48.0088 65.9643 47.9514 66.0366 47.8791C66.1089 47.8068 66.1663 47.7209 66.2054 47.6264C66.2445 47.5319 66.2646 47.4306 66.2645 47.3284C66.2631 46.1456 65.9266 44.9875 65.2941 43.9881C64.6616 42.9888 63.759 42.189 62.6907 41.6815C63.39 41.1247 63.8989 40.3642 64.1469 39.5054C64.3949 38.6466 64.3697 37.7319 64.0748 36.888C63.7799 36.0441 63.2299 35.3128 62.5009 34.7954C61.772 34.278 60.9002 34 60.0063 34C59.1124 34 58.2406 34.278 57.5116 34.7954C56.7827 35.3128 56.2327 36.0441 55.9378 36.888C55.6429 37.7319 55.6177 38.6466 55.8657 39.5054C56.1136 40.3642 56.6225 41.1247 57.3219 41.6815C56.2539 42.1889 55.3514 42.9883 54.7189 43.9874C54.0864 44.9864 53.7498 46.1442 53.7481 47.3266C53.7478 47.429 53.7677 47.5305 53.8067 47.6252C53.8457 47.7199 53.903 47.806 53.9754 47.8785C54.0477 47.951 54.1336 48.0085 54.2282 48.0477C54.3229 48.0869 54.4243 48.1071 54.5267 48.107ZM57.2538 38.3181C57.2536 37.7737 57.4149 37.2414 57.7173 36.7887C58.0196 36.3359 58.4494 35.983 58.9523 35.7745C59.4553 35.5661 60.0087 35.5114 60.5427 35.6175C61.0767 35.7236 61.5672 35.9857 61.9523 36.3706C62.3373 36.7555 62.5995 37.246 62.7058 37.7799C62.8121 38.3139 62.7576 38.8673 62.5493 39.3703C62.341 39.8733 61.9882 40.3033 61.5356 40.6058C61.0829 40.9082 60.5507 41.0697 60.0063 41.0697C59.2765 41.0689 58.5769 40.7786 58.0609 40.2626C57.5449 39.7466 57.2546 39.047 57.2538 38.3172V38.3181ZM60.0063 42.627C61.1178 42.6286 62.1929 43.0232 63.0415 43.7411C63.89 44.459 64.4574 45.4538 64.6431 46.5497H55.3694C55.5551 45.4538 56.1224 44.4589 56.971 43.741C57.8196 43.0231 58.8948 42.6285 60.0063 42.627Z" fill="#58B7FF"/>
<path d="M46.5174 66.2846C46.5155 65.1021 46.1788 63.9444 45.5463 62.9454C44.9137 61.9463 44.0111 61.1469 42.9431 60.6395C43.6424 60.0827 44.1513 59.3222 44.3993 58.4634C44.6473 57.6046 44.6221 56.6899 44.3272 55.846C44.0323 55.0021 43.4823 54.2708 42.7533 53.7534C42.0244 53.236 41.1526 52.958 40.2587 52.958C39.3648 52.958 38.493 53.236 37.764 53.7534C37.0351 54.2708 36.4851 55.0021 36.1902 55.846C35.8953 56.6899 35.8701 57.6046 36.118 58.4634C36.366 59.3222 36.8749 60.0827 37.5743 60.6395C36.5062 61.1469 35.6037 61.9463 34.9711 62.9454C34.3385 63.9444 34.0019 65.1021 34 66.2846C34 66.4911 34.082 66.6892 34.2281 66.8352C34.3741 66.9812 34.5721 67.0633 34.7787 67.0633H45.7387C45.9452 67.0631 46.1432 66.9811 46.2892 66.8351C46.4352 66.6891 46.5172 66.4911 46.5174 66.2846ZM37.5062 57.2734C37.5062 56.7291 37.6676 56.1969 37.9701 55.7443C38.2725 55.2916 38.7024 54.9388 39.2054 54.7305C39.7083 54.5222 40.2617 54.4677 40.7957 54.5739C41.3296 54.6801 41.82 54.9422 42.205 55.3272C42.5899 55.7121 42.852 56.2025 42.9583 56.7365C43.0645 57.2704 43.0099 57.8238 42.8016 58.3268C42.5933 58.8297 42.2405 59.2596 41.7879 59.562C41.3352 59.8645 40.8031 60.0259 40.2587 60.0259C39.5289 60.0251 38.8293 59.7348 38.3133 59.2188C37.7973 58.7028 37.507 58.0032 37.5062 57.2734ZM35.6227 65.5059C35.8072 64.4095 36.3743 63.4139 37.2232 62.6959C38.0721 61.9779 39.148 61.5839 40.2598 61.5839C41.3716 61.5839 42.4475 61.9779 43.2964 62.6959C44.1453 63.4139 44.7124 64.4095 44.8968 65.5059H35.6227Z" fill="#58B7FF"/>
<path d="M62.6892 79.5958C63.3885 79.039 63.8974 78.2785 64.1454 77.4197C64.3934 76.5609 64.3682 75.6462 64.0733 74.8023C63.7784 73.9584 63.2284 73.2271 62.4994 72.7097C61.7705 72.1923 60.8987 71.9143 60.0048 71.9143C59.1109 71.9143 58.2391 72.1923 57.5101 72.7097C56.7812 73.2271 56.2312 73.9584 55.9363 74.8023C55.6414 75.6462 55.6162 76.5609 55.8641 77.4197C56.1121 78.2785 56.621 79.039 57.3204 79.5958C56.2521 80.1033 55.3494 80.9029 54.7168 81.9022C54.0843 82.9015 53.7477 84.0595 53.7461 85.2422C53.7461 85.4487 53.8281 85.6468 53.9742 85.7928C54.1202 85.9389 54.3182 86.0209 54.5248 86.0209H65.4843C65.6909 86.0209 65.8889 85.9389 66.0349 85.7928C66.181 85.6468 66.263 85.4487 66.263 85.2422C66.2615 84.0596 65.925 82.9016 65.2925 81.9023C64.66 80.903 63.7574 80.1033 62.6892 79.5958ZM57.2523 76.2298C57.2523 75.6854 57.4137 75.1532 57.7162 74.7006C58.0186 74.2479 58.4485 73.8951 58.9514 73.6868C59.4544 73.4785 60.0078 73.424 60.5417 73.5302C61.0757 73.6364 61.5661 73.8985 61.9511 74.2835C62.336 74.6684 62.5981 75.1588 62.7043 75.6928C62.8106 76.2267 62.756 76.7801 62.5477 77.2831C62.3394 77.786 61.9866 78.2159 61.534 78.5183C61.0813 78.8208 60.5492 78.9822 60.0048 78.9822C59.275 78.9814 58.5754 78.6911 58.0594 78.1751C57.5434 77.6591 57.2531 76.9595 57.2523 76.2298ZM55.3675 84.4613C55.552 83.3649 56.119 82.3693 56.9679 81.6513C57.8168 80.9333 58.8927 80.5393 60.0045 80.5393C61.1164 80.5393 62.1923 80.9333 63.0412 81.6513C63.8901 82.3693 64.4571 83.3649 64.6416 84.4613H55.3675Z" fill="#58B7FF"/>
<path d="M82.4372 60.6395C83.1366 60.0827 83.6455 59.3222 83.8934 58.4634C84.1414 57.6046 84.1162 56.6899 83.8213 55.846C83.5264 55.0021 82.9764 54.2708 82.2475 53.7534C81.5185 53.236 80.6467 52.958 79.7528 52.958C78.8589 52.958 77.9871 53.236 77.2582 53.7534C76.5292 54.2708 75.9792 55.0021 75.6843 55.846C75.3894 56.6899 75.3642 57.6046 75.6122 58.4634C75.8602 59.3222 76.3691 60.0827 77.0684 60.6395C76.0004 61.1469 75.0978 61.9463 74.4652 62.9454C73.8327 63.9444 73.496 65.1021 73.4941 66.2846C73.4943 66.4911 73.5763 66.6891 73.7223 66.8351C73.8683 66.9811 74.0663 67.0631 74.2728 67.0633H85.2342C85.4407 67.0633 85.6387 66.9812 85.7848 66.8352C85.9308 66.6892 86.0128 66.4911 86.0128 66.2846C86.0109 65.102 85.674 63.9441 85.0412 62.9451C84.4084 61.946 83.5055 61.1467 82.4372 60.6395ZM77.0026 57.2734C77.0026 56.7291 77.164 56.1969 77.4665 55.7443C77.7689 55.2916 78.1988 54.9388 78.7017 54.7305C79.2047 54.5222 79.7581 54.4677 80.292 54.5739C80.8259 54.6801 81.3164 54.9422 81.7013 55.3272C82.0863 55.7121 82.3484 56.2025 82.4546 56.7365C82.5608 57.2704 82.5063 57.8238 82.298 58.3268C82.0897 58.8297 81.7369 59.2596 81.2842 59.562C80.8316 59.8645 80.2994 60.0259 79.755 60.0259C79.0253 60.0251 78.3257 59.7348 77.8097 59.2188C77.2937 58.7028 77.0034 58.0032 77.0026 57.2734ZM75.1182 65.505C75.3027 64.4086 75.8697 63.413 76.7186 62.695C77.5676 61.977 78.6434 61.583 79.7553 61.583C80.8671 61.583 81.943 61.977 82.7919 62.695C83.6408 63.413 84.2078 64.4086 84.3923 65.505H75.1182Z" fill="#58B7FF"/>
<path d="M58.0738 57.3406C58.5356 56.8764 58.7949 56.2482 58.7949 55.5933C58.7949 54.9385 58.5356 54.3102 58.0738 53.846L56.4177 52.1894C56.1881 51.9591 55.9154 51.7764 55.6151 51.6517C55.3148 51.5271 54.9928 51.4629 54.6677 51.4629C54.3425 51.4629 54.0206 51.5271 53.7203 51.6517C53.42 51.7764 53.1472 51.9591 52.9177 52.1894L52.3393 52.7679C49.0595 56.0445 51.5957 61.5637 55.3382 65.3057C57.8696 67.8384 61.2174 69.8184 64.1309 69.8184C64.8245 69.8336 65.5141 69.7077 66.1575 69.4481C66.8009 69.1886 67.3849 68.8009 67.8738 68.3087L68.4563 67.7258C68.9181 67.2615 69.1774 66.6332 69.1774 65.9782C69.1774 65.3233 68.9181 64.695 68.4563 64.2307L66.7997 62.5728C66.5707 62.3421 66.2982 62.1591 65.9979 62.0345C65.6977 61.9098 65.3757 61.846 65.0506 61.8467H65.0471C64.7228 61.8463 64.4017 61.9103 64.1024 62.035C63.8031 62.1596 63.5315 62.3424 63.3033 62.5728L62.7195 63.1548C62.1776 63.6963 60.6469 63.0173 59.2364 61.6055C57.6836 60.0513 57.0326 58.3805 57.4887 57.9249L58.0738 57.3406ZM58.1365 62.7063C60.3324 64.9044 62.5647 65.5122 63.8217 64.2565L64.4059 63.6727C64.4901 63.5878 64.5903 63.5205 64.7008 63.4747C64.8112 63.4289 64.9297 63.4054 65.0493 63.4058C65.1698 63.4057 65.2892 63.4295 65.4005 63.4758C65.5118 63.5222 65.6127 63.5902 65.6976 63.6758L67.3541 65.3324C67.5249 65.5045 67.6207 65.7371 67.6207 65.9796C67.6207 66.222 67.5249 66.4547 67.3541 66.6268L66.7717 67.2092C64.3658 69.6155 59.7521 67.5207 56.4381 64.2058C53.1241 60.8909 51.0311 56.2759 53.4383 53.8696L54.0167 53.2911C54.1017 53.2056 54.2028 53.1377 54.3141 53.0913C54.4255 53.045 54.5449 53.0211 54.6655 53.0211C54.7861 53.0211 54.9055 53.045 55.0168 53.0913C55.1281 53.1377 55.2292 53.2056 55.3142 53.2911L56.9707 54.9481C57.1415 55.1201 57.2373 55.3526 57.2373 55.5949C57.2373 55.8372 57.1415 56.0697 56.9707 56.2416L56.3879 56.8245C54.9694 58.243 56.2998 60.8678 58.1365 62.7063Z" fill="#58B7FF"/>
<path d="M79.7882 68.33C79.6955 68.2868 79.5951 68.2624 79.493 68.258C79.3908 68.2537 79.2887 68.2695 79.1927 68.3046C79.0966 68.3398 79.0085 68.3935 78.9332 68.4628C78.8579 68.532 78.7971 68.6154 78.7541 68.7082C76.4453 73.6414 72.2969 77.4746 67.1969 79.387C67.0034 79.459 66.8463 79.6049 66.7602 79.7926C66.6742 79.9804 66.6663 80.1946 66.7382 80.3882C66.8101 80.5818 66.956 80.7389 67.1438 80.8249C67.3315 80.9109 67.5458 80.9188 67.7393 80.8469C73.2233 78.7902 77.684 74.6681 80.1664 69.3632C80.253 69.176 80.2619 68.9621 80.191 68.7684C80.1201 68.5747 79.9752 68.417 79.7882 68.33Z" fill="#58B7FF"/>
<path d="M66.3774 40.3546C69.0425 41.2248 71.5039 42.6256 73.613 44.4727C75.7222 46.3198 77.4355 48.5749 78.6496 51.102C78.7388 51.2882 78.8983 51.4314 79.0931 51.5001C79.2879 51.5687 79.502 51.5571 79.6883 51.4679C79.8746 51.3787 80.0178 51.2192 80.0864 51.0244C80.1551 50.8296 80.1435 50.6155 80.0543 50.4292C78.7486 47.712 76.9063 45.2873 74.6384 43.3012C72.3705 41.3152 69.724 39.8088 66.8584 38.8729C66.7611 38.8414 66.6585 38.8294 66.5566 38.8376C66.4547 38.8457 66.3553 38.8738 66.2643 38.9203C66.0804 39.0143 65.9413 39.1775 65.8777 39.3739C65.8141 39.5704 65.8311 39.7841 65.9251 39.968C66.0191 40.152 66.1822 40.291 66.3787 40.3546H66.3774Z" fill="#58B7FF"/>
<path d="M40.5178 51.0378C40.7021 51.131 40.9158 51.1472 41.112 51.0829C41.3083 51.0186 41.4709 50.879 41.5643 50.6948C43.9403 45.9777 48.0368 42.3531 53.008 40.569C53.1054 40.5353 53.1952 40.4827 53.2721 40.414C53.349 40.3454 53.4115 40.2621 53.456 40.1692C53.5004 40.0762 53.526 39.9753 53.5312 39.8723C53.5364 39.7694 53.5211 39.6664 53.4862 39.5695C53.4513 39.4725 53.3975 39.3834 53.3279 39.3073C53.2583 39.2313 53.1743 39.1699 53.0808 39.1265C52.9872 39.0832 52.886 39.0589 52.783 39.055C52.68 39.0511 52.5773 39.0677 52.4807 39.1038C47.1345 41.0216 42.7288 44.9192 40.1734 49.9917C40.1273 50.083 40.0996 50.1825 40.092 50.2845C40.0844 50.3865 40.0969 50.489 40.1289 50.5861C40.1609 50.6833 40.2117 50.7732 40.2784 50.8507C40.3451 50.9282 40.4265 50.9918 40.5178 51.0378Z" fill="#58B7FF"/>
<path d="M53.2605 79.5468C50.6369 78.6337 48.2229 77.2038 46.1613 75.3418C44.0997 73.4798 42.4322 71.2234 41.2576 68.706C41.2155 68.6117 41.1552 68.5266 41.0799 68.4558C41.0047 68.385 40.9162 68.3299 40.8195 68.2937C40.7227 68.2574 40.6198 68.2408 40.5166 68.2447C40.4134 68.2486 40.312 68.2731 40.2183 68.3166C40.1246 68.3601 40.0405 68.4218 39.9709 68.4981C39.9013 68.5744 39.8476 68.6638 39.8129 68.7611C39.7782 68.8584 39.7631 68.9616 39.7687 69.0647C39.7743 69.1679 39.8003 69.2689 39.8453 69.3619C41.1083 72.069 42.9012 74.4954 45.1181 76.4978C47.3349 78.5001 49.9307 80.0377 52.752 81.0196C52.8488 81.0539 52.9515 81.0686 53.0541 81.063C53.1567 81.0575 53.2572 81.0316 53.3497 80.987C53.4423 80.9424 53.5251 80.88 53.5934 80.8032C53.6617 80.7265 53.7142 80.6369 53.7477 80.5398C53.7813 80.4427 53.7953 80.3399 53.7889 80.2374C53.7826 80.1348 53.756 80.0345 53.7107 79.9423C53.6654 79.8501 53.6023 79.7677 53.5251 79.7C53.4478 79.6323 53.3579 79.5805 53.2605 79.5477V79.5468Z" fill="#58B7FF"/>
</g>
<defs>
<filter id="filter0_di" x="0" y="0" width="120" height="120" filterUnits="userSpaceOnUse" color-interpolation-filters="sRGB">
<feFlood flood-opacity="0" result="BackgroundImageFix"/>
<feColorMatrix in="SourceAlpha" type="matrix" values="0 0 0 0 0 0 0 0 0 0 0 0 0 0 0 0 0 0 127 0" result="hardAlpha"/>
<feMorphology radius="2" operator="dilate" in="SourceAlpha" result="effect1_dropShadow"/>
<feOffset/>
<feGaussianBlur stdDeviation="4"/>
<feColorMatrix type="matrix" values="0 0 0 0 0 0 0 0 0 0.465833 0 0 0 0 0.895833 0 0 0 0.16 0"/>
<feBlend mode="normal" in2="BackgroundImageFix" result="effect1_dropShadow"/>
<feBlend mode="normal" in="SourceGraphic" in2="effect1_dropShadow" result="shape"/>
<feColorMatrix in="SourceAlpha" type="matrix" values="0 0 0 0 0 0 0 0 0 0 0 0 0 0 0 0 0 0 127 0" result="hardAlpha"/>
<feMorphology radius="8" operator="erode" in="SourceAlpha" result="effect2_innerShadow"/>
<feOffset dx="6"/>
<feGaussianBlur stdDeviation="8"/>
<feComposite in2="hardAlpha" operator="arithmetic" k2="-1" k3="1"/>
<feColorMatrix type="matrix" values="0 0 0 0 0.875 0 0 0 0 0.875 0 0 0 0 0.875 0 0 0 0.25 0"/>
<feBlend mode="normal" in2="shape" result="effect2_innerShadow"/>
</filter>
<filter id="filter1_d" x="26" y="26" width="68.0128" height="68.0209" filterUnits="userSpaceOnUse" color-interpolation-filters="sRGB">
<feFlood flood-opacity="0" result="BackgroundImageFix"/>
<feColorMatrix in="SourceAlpha" type="matrix" values="0 0 0 0 0 0 0 0 0 0 0 0 0 0 0 0 0 0 127 0" result="hardAlpha"/>
<feOffset/>
<feGaussianBlur stdDeviation="4"/>
<feComposite in2="hardAlpha" operator="out"/>
<feColorMatrix type="matrix" values="0 0 0 0 0 0 0 0 0 0.466667 0 0 0 0 0.894118 0 0 0 0.16 0"/>
<feBlend mode="normal" in2="BackgroundImageFix" result="effect1_dropShadow"/>
<feBlend mode="normal" in="SourceGraphic" in2="effect1_dropShadow" result="shape"/>
</filter>
</defs>
</svg>
