<svg width="120" height="120" viewBox="0 0 120 120" fill="none" xmlns="http://www.w3.org/2000/svg">
<g filter="url(#filter0_d)">
<ellipse cx="60" cy="60" rx="50" ry="50" transform="rotate(-180 60 60)" fill="white"/>
<path d="M11 60C11 32.9381 32.9381 11 60 11C87.062 11 109 32.9381 109 60C109 87.062 87.062 109 60 109C32.938 109 11 87.0619 11 60Z" stroke="#58B7FF" stroke-width="2"/>
</g>
<g filter="url(#filter1_d)">
<path d="M87.2774 55.5019L83.8316 54.8119C83.2188 51.9675 82.0964 49.2575 80.5186 46.8129L82.4668 43.8919C82.5827 43.7181 82.6348 43.5096 82.6142 43.3017C82.5936 43.0939 82.5016 42.8997 82.3539 42.752L77.2444 37.6461C77.0967 37.4984 76.9025 37.4064 76.6946 37.3858C76.4868 37.3652 76.2783 37.4173 76.1045 37.5332L73.1871 39.4814C70.7436 37.9045 68.0348 36.7829 65.1917 36.1711L64.4981 32.7226C64.4564 32.5186 64.3456 32.3352 64.1843 32.2035C64.023 32.0719 63.8211 32 63.6129 32H56.3871C56.1789 32 55.977 32.0719 55.8157 32.2035C55.6544 32.3352 55.5436 32.5186 55.5019 32.7226L54.8128 36.1675C51.9697 36.7793 49.2609 37.9009 46.8174 39.4778L43.8955 37.5332C43.7217 37.4173 43.5132 37.3652 43.3054 37.3858C43.0975 37.4064 42.9033 37.4984 42.7556 37.6461L37.6461 42.7556C37.4984 42.9033 37.4064 43.0975 37.3858 43.3054C37.3652 43.5132 37.4173 43.7217 37.5332 43.8955L39.4814 46.8129C37.9053 49.2567 36.7841 51.9654 36.172 54.8083L32.7226 55.5019C32.5186 55.5436 32.3352 55.6544 32.2035 55.8157C32.0719 55.977 32 56.1789 32 56.3871V63.6129C32 63.8211 32.0719 64.023 32.2035 64.1843C32.3352 64.3456 32.5186 64.4564 32.7226 64.4981L36.1684 65.1881C36.7812 68.0325 37.9036 70.7425 39.4814 73.1871L37.5332 76.1045C37.4173 76.2783 37.3652 76.4868 37.3858 76.6946C37.4064 76.9025 37.4984 77.0967 37.6461 77.2444L42.7556 82.3539C42.9033 82.5016 43.0975 82.5936 43.3054 82.6142C43.5132 82.6348 43.7217 82.5827 43.8955 82.4668L46.8174 80.5186C49.2609 82.0946 51.9693 83.2158 54.8119 83.828L55.5019 87.2774C55.5436 87.4814 55.6544 87.6648 55.8157 87.7965C55.977 87.9281 56.1789 88 56.3871 88H63.6129C63.8211 88 64.023 87.9281 64.1843 87.7965C64.3456 87.6648 64.4564 87.4814 64.4981 87.2774L65.1881 83.8316C68.0325 83.2188 70.7425 82.0964 73.1871 80.5186L76.109 82.4668C76.2828 82.5827 76.4913 82.6348 76.6992 82.6142C76.907 82.5936 77.1012 82.5016 77.2489 82.3539L82.3585 77.2444C82.5061 77.0967 82.5981 76.9025 82.6187 76.6946C82.6393 76.4868 82.5872 76.2783 82.4714 76.1045L80.5186 73.1871C82.0947 70.7433 83.2159 68.0346 83.828 65.1917L87.2774 64.4981C87.4814 64.4564 87.6648 64.3456 87.7965 64.1843C87.9281 64.023 88 63.8211 88 63.6129V56.3871C88 56.1789 87.9281 55.977 87.7965 55.8157C87.6648 55.6544 87.4814 55.5436 87.2774 55.5019ZM86.1935 62.8732L82.885 63.5343C82.7089 63.5696 82.5473 63.6566 82.4208 63.7841C82.2943 63.9117 82.2088 64.0741 82.1751 64.2506C81.6045 67.2694 80.417 70.138 78.6868 72.6768C78.5865 72.8259 78.5328 73.0015 78.5328 73.1812C78.5328 73.361 78.5865 73.5366 78.6868 73.6857L80.5565 76.4911L76.492 80.5556L73.692 78.6859C73.5429 78.5856 73.3673 78.5319 73.1875 78.5319C73.0078 78.5319 72.8322 78.5856 72.6831 78.6859C70.1441 80.4157 67.2756 81.6032 64.2569 82.1742C64.0805 82.2079 63.9181 82.2934 63.7905 82.4199C63.6629 82.5463 63.5759 82.708 63.5406 82.8841L62.8723 86.1935H57.1277L56.4657 82.885C56.4304 82.7089 56.3434 82.5473 56.2159 82.4208C56.0883 82.2943 55.9259 82.2088 55.7494 82.1751C52.7307 81.6041 49.8622 80.4166 47.3232 78.6868C47.1741 78.5865 46.9985 78.5328 46.8188 78.5328C46.639 78.5328 46.4634 78.5865 46.3143 78.6868L43.5143 80.5565L39.4498 76.492L41.3195 73.6866C41.4199 73.5375 41.4735 73.3619 41.4735 73.1821C41.4735 73.0024 41.4199 72.8268 41.3195 72.6777C39.5893 70.1389 38.4018 67.2703 37.8312 64.2515C37.7975 64.075 37.712 63.9126 37.5855 63.785C37.4591 63.6575 37.2974 63.5705 37.1213 63.5352L33.8065 62.8732V57.1268L37.115 56.4657C37.2911 56.4304 37.4527 56.3434 37.5792 56.2159C37.7057 56.0883 37.7912 55.9259 37.8249 55.7494C38.3955 52.7306 39.583 49.862 41.3132 47.3232C41.4135 47.1741 41.4672 46.9985 41.4672 46.8188C41.4672 46.639 41.4135 46.4634 41.3132 46.3143L39.4435 43.5089L43.508 39.4444L46.308 41.3141C46.4571 41.4144 46.6327 41.4681 46.8125 41.4681C46.9922 41.4681 47.1678 41.4144 47.3169 41.3141C49.8558 39.584 52.7243 38.3962 55.7431 37.8249C55.9195 37.7912 56.0819 37.7057 56.2095 37.5792C56.3371 37.4527 56.4241 37.2911 56.4594 37.115L57.1277 33.8065H62.8723L63.5343 37.1141C63.5696 37.2902 63.6566 37.4518 63.7841 37.5783C63.9117 37.7048 64.0741 37.7903 64.2506 37.824C67.2694 38.3953 70.1378 39.5831 72.6768 41.3132C72.8259 41.4135 73.0015 41.4672 73.1812 41.4672C73.361 41.4672 73.5366 41.4135 73.6857 41.3132L76.4857 39.4435L80.5502 43.508L78.6805 46.3134C78.5801 46.4625 78.5265 46.6381 78.5265 46.8179C78.5265 46.9976 78.5801 47.1732 78.6805 47.3223C80.4107 49.8611 81.5982 52.7297 82.1688 55.7485C82.2025 55.925 82.288 56.0874 82.4145 56.215C82.5409 56.3425 82.7026 56.4295 82.8787 56.4648L86.1935 57.1268V62.8732Z" fill="#58B7FF"/>
<path d="M60.0003 43.7419C56.7847 43.7419 53.6414 44.6955 50.9678 46.4819C48.2941 48.2684 46.2103 50.8075 44.9798 53.7783C43.7492 56.7491 43.4273 60.018 44.0546 63.1718C44.6819 66.3256 46.2303 69.2225 48.5041 71.4962C50.7778 73.7699 53.6747 75.3184 56.8285 75.9457C59.9822 76.573 63.2512 76.251 66.2219 75.0205C69.1927 73.79 71.7319 71.7061 73.5183 69.0325C75.3048 66.3589 76.2583 63.2155 76.2583 60C76.2533 55.6896 74.5388 51.5573 71.4909 48.5094C68.443 45.4615 64.3106 43.747 60.0003 43.7419ZM60.0003 74.4516C57.142 74.4516 54.3479 73.604 51.9714 72.0161C49.5948 70.4281 47.7425 68.1711 46.6487 65.5304C45.5549 62.8897 45.2687 59.984 45.8263 57.1806C46.3839 54.3773 47.7603 51.8023 49.7814 49.7812C51.8025 47.7601 54.3776 46.3837 57.1809 45.8261C59.9842 45.2685 62.89 45.5547 65.5307 46.6485C68.1713 47.7423 70.4284 49.5946 72.0163 51.9711C73.6043 54.3477 74.4519 57.1417 74.4519 60C74.4473 63.8314 72.9233 67.5046 70.2141 70.2138C67.5049 72.923 63.8317 74.4471 60.0003 74.4516Z" fill="#58B7FF"/>
<path d="M59.9997 48.2581C57.6774 48.2581 55.4072 48.9467 53.4763 50.2369C51.5453 51.5271 50.0403 53.361 49.1516 55.5065C48.2629 57.6521 48.0304 60.013 48.4834 62.2907C48.9365 64.5684 50.0548 66.6606 51.6969 68.3028C53.3391 69.9449 55.4313 71.0632 57.709 71.5163C59.9867 71.9694 62.3476 71.7368 64.4932 70.8481C66.6387 69.9594 68.4726 68.4544 69.7628 66.5235C71.053 64.5925 71.7417 62.3223 71.7417 60C71.7381 56.8869 70.4998 53.9024 68.2986 51.7011C66.0973 49.4999 63.1128 48.2616 59.9997 48.2581ZM59.9997 69.9355C58.0347 69.9355 56.1138 69.3528 54.4799 68.261C52.846 67.1693 51.5726 65.6176 50.8206 63.8021C50.0686 61.9867 49.8718 59.989 50.2552 58.0617C50.6385 56.1344 51.5848 54.364 52.9743 52.9745C54.3638 51.585 56.1341 50.6388 58.0614 50.2554C59.9887 49.8721 61.9864 50.0688 63.8019 50.8208C65.6174 51.5728 67.1691 52.8462 68.2608 54.4801C69.3525 56.114 69.9352 58.0349 69.9352 60C69.9321 62.6341 68.8844 65.1594 67.0218 67.022C65.1592 68.8846 62.6338 69.9324 59.9997 69.9355Z" fill="#58B7FF"/>
<path d="M63.8775 53.9421L58.1935 59.6261L56.1224 57.555C55.953 57.3856 55.7233 57.2905 55.4838 57.2905C55.2443 57.2905 55.0146 57.3856 54.8452 57.555L52.1355 60.2646C51.9662 60.434 51.8711 60.6637 51.8711 60.9032C51.8711 61.1427 51.9662 61.3724 52.1355 61.5418L57.5549 66.9612C57.7243 67.1305 57.954 67.2256 58.1935 67.2256C58.433 67.2256 58.6627 67.1305 58.8321 66.9612L67.8643 57.9289C68.0336 57.7595 68.1288 57.5298 68.1288 57.2903C68.1288 57.0508 68.0336 56.8211 67.8643 56.6517L65.1546 53.9421C64.9853 53.7727 64.7556 53.6776 64.5161 53.6776C64.2766 53.6776 64.0469 53.7727 63.8775 53.9421ZM58.1935 65.0454L54.0513 60.9032L55.4838 59.4707L57.5549 61.5418C57.7243 61.7111 57.954 61.8063 58.1935 61.8063C58.433 61.8063 58.6627 61.7111 58.8321 61.5418L64.5161 55.8578L65.9486 57.2903L58.1935 65.0454Z" fill="#58B7FF"/>
</g>
<defs>
<filter id="filter0_d" x="0" y="0" width="120" height="120" filterUnits="userSpaceOnUse" color-interpolation-filters="sRGB">
<feFlood flood-opacity="0" result="BackgroundImageFix"/>
<feColorMatrix in="SourceAlpha" type="matrix" values="0 0 0 0 0 0 0 0 0 0 0 0 0 0 0 0 0 0 127 0" result="hardAlpha"/>
<feMorphology radius="2" operator="dilate" in="SourceAlpha" result="effect1_dropShadow"/>
<feOffset/>
<feGaussianBlur stdDeviation="4"/>
<feColorMatrix type="matrix" values="0 0 0 0 0 0 0 0 0 0.465833 0 0 0 0 0.895833 0 0 0 0.16 0"/>
<feBlend mode="normal" in2="BackgroundImageFix" result="effect1_dropShadow"/>
<feBlend mode="normal" in="SourceGraphic" in2="effect1_dropShadow" result="shape"/>
</filter>
<filter id="filter1_d" x="24" y="24" width="72" height="72" filterUnits="userSpaceOnUse" color-interpolation-filters="sRGB">
<feFlood flood-opacity="0" result="BackgroundImageFix"/>
<feColorMatrix in="SourceAlpha" type="matrix" values="0 0 0 0 0 0 0 0 0 0 0 0 0 0 0 0 0 0 127 0" result="hardAlpha"/>
<feOffset/>
<feGaussianBlur stdDeviation="4"/>
<feComposite in2="hardAlpha" operator="out"/>
<feColorMatrix type="matrix" values="0 0 0 0 0 0 0 0 0 0.466667 0 0 0 0 0.894118 0 0 0 0.16 0"/>
<feBlend mode="normal" in2="BackgroundImageFix" result="effect1_dropShadow"/>
<feBlend mode="normal" in="SourceGraphic" in2="effect1_dropShadow" result="shape"/>
</filter>
</defs>
</svg>
