<svg width="120" height="120" viewBox="0 0 120 120" fill="none" xmlns="http://www.w3.org/2000/svg">
<g filter="url(#filter0_d)">
<path d="M11 60C11 32.9381 32.9381 11 60 11C87.062 11 109 32.9381 109 60C109 87.062 87.062 109 60 109C32.938 109 11 87.0619 11 60Z" stroke="#58B7FF" stroke-width="2"/>
</g>
<g filter="url(#filter1_d)">
<path d="M82.5326 55.3165H81.666C81.6603 54.1824 80.9203 53.1829 79.8373 52.8465C78.8356 42.6409 70.2542 34.8606 59.9996 34.8606C49.745 34.8606 41.1636 42.6409 40.1619 52.8465C39.0789 53.1829 38.3389 54.1824 38.3333 55.3165H37.4666C35.5521 55.3165 34 56.8685 34 58.7831V65.7163C34 67.6309 35.5521 69.1829 37.4666 69.1829H38.3333C38.3333 70.6188 39.4973 71.7829 40.9332 71.7829H41.7999V75.2495C41.7999 79.5573 45.292 83.0494 49.5998 83.0494H52.3211C52.7152 84.5759 54.0898 85.6442 55.6664 85.6494H64.3329C66.2475 85.6494 67.7995 84.0973 67.7995 82.1827C67.7995 80.2682 66.2475 78.7161 64.3329 78.7161H55.6664C54.0898 78.7212 52.7152 79.7896 52.3211 81.3161H49.5998C46.2493 81.3161 43.5332 78.6 43.5332 75.2495V71.7829H44.3999C45.8358 71.7829 46.9998 70.6188 46.9998 69.1829V55.3165C46.9987 54.2563 46.354 53.303 45.3705 52.9072C46.2554 45.4989 52.5387 39.9215 59.9996 39.9215C67.4606 39.9215 73.7438 45.4989 74.6288 52.9072C73.6452 53.303 73.0005 54.2563 72.9994 55.3165V69.1829C72.9994 70.6188 74.1635 71.7829 75.5994 71.7829H79.066C80.5019 71.7829 81.666 70.6188 81.666 69.1829H82.5326C84.4472 69.1829 85.9993 67.6309 85.9993 65.7163V58.7831C85.9993 56.8685 84.4472 55.3165 82.5326 55.3165ZM55.6664 80.4494H64.3329C65.2902 80.4494 66.0662 81.2255 66.0662 82.1827C66.0662 83.14 65.2902 83.9161 64.3329 83.9161H55.6664C54.7091 83.9161 53.9331 83.14 53.9331 82.1827C53.9331 81.2255 54.7091 80.4494 55.6664 80.4494ZM37.4666 67.4496C36.5093 67.4496 35.7333 66.6736 35.7333 65.7163V58.7831C35.7333 57.8258 36.5093 57.0498 37.4666 57.0498H38.3333V67.4496H37.4666ZM45.2665 69.1829C45.2665 69.6616 44.8785 70.0496 44.3999 70.0496H40.9332C40.4546 70.0496 40.0666 69.6616 40.0666 69.1829V55.3165C40.0666 54.8378 40.4546 54.4498 40.9332 54.4498H44.3999C44.8785 54.4498 45.2665 54.8378 45.2665 55.3165V69.1829ZM59.9996 37.9834C51.5846 37.9942 44.5317 44.3482 43.6459 52.7165H41.9126C42.9423 43.5049 50.7306 36.5387 59.9996 36.5387C69.2686 36.5387 77.0569 43.5049 78.0867 52.7165H76.3534C75.4676 44.3482 68.4147 37.9942 59.9996 37.9834ZM79.9327 69.1829C79.9327 69.6616 79.5447 70.0496 79.066 70.0496H75.5994C75.1208 70.0496 74.7328 69.6616 74.7328 69.1829V55.3165C74.7328 54.8378 75.1208 54.4498 75.5994 54.4498H79.066C79.5447 54.4498 79.9327 54.8378 79.9327 55.3165V69.1829ZM84.266 65.7163C84.266 66.6736 83.4899 67.4496 82.5326 67.4496H81.666V57.0498H82.5326C83.4899 57.0498 84.266 57.8258 84.266 58.7831V65.7163Z" fill="#58B7FF"/>
</g>
<defs>
<filter id="filter0_d" x="0" y="0" width="120" height="120" filterUnits="userSpaceOnUse" color-interpolation-filters="sRGB">
<feFlood flood-opacity="0" result="BackgroundImageFix"/>
<feColorMatrix in="SourceAlpha" type="matrix" values="0 0 0 0 0 0 0 0 0 0 0 0 0 0 0 0 0 0 127 0" result="hardAlpha"/>
<feMorphology radius="2" operator="dilate" in="SourceAlpha" result="effect1_dropShadow"/>
<feOffset/>
<feGaussianBlur stdDeviation="4"/>
<feColorMatrix type="matrix" values="0 0 0 0 0 0 0 0 0 0.465833 0 0 0 0 0.895833 0 0 0 0.16 0"/>
<feBlend mode="normal" in2="BackgroundImageFix" result="effect1_dropShadow"/>
<feBlend mode="normal" in="SourceGraphic" in2="effect1_dropShadow" result="shape"/>
</filter>
<filter id="filter1_d" x="26" y="26.8606" width="67.9993" height="66.7888" filterUnits="userSpaceOnUse" color-interpolation-filters="sRGB">
<feFlood flood-opacity="0" result="BackgroundImageFix"/>
<feColorMatrix in="SourceAlpha" type="matrix" values="0 0 0 0 0 0 0 0 0 0 0 0 0 0 0 0 0 0 127 0" result="hardAlpha"/>
<feOffset/>
<feGaussianBlur stdDeviation="4"/>
<feComposite in2="hardAlpha" operator="out"/>
<feColorMatrix type="matrix" values="0 0 0 0 0 0 0 0 0 0.466667 0 0 0 0 0.894118 0 0 0 0.16 0"/>
<feBlend mode="normal" in2="BackgroundImageFix" result="effect1_dropShadow"/>
<feBlend mode="normal" in="SourceGraphic" in2="effect1_dropShadow" result="shape"/>
</filter>
</defs>
</svg>
