<svg width="120" height="120" viewBox="0 0 120 120" fill="none" xmlns="http://www.w3.org/2000/svg">
<g filter="url(#filter0_d)">
<ellipse cx="60" cy="60" rx="50" ry="50" transform="rotate(-180 60 60)" fill="white"/>
<path d="M11 60C11 32.9381 32.9381 11 60 11C87.062 11 109 32.9381 109 60C109 87.062 87.062 109 60 109C32.938 109 11 87.0619 11 60Z" stroke="#58B7FF" stroke-width="2"/>
</g>
<g filter="url(#filter1_d)">
<path d="M79.8814 73.3093L73.1377 66.5646C72.5412 65.968 71.7479 65.6392 70.9043 65.6392C70.0603 65.6392 69.2674 65.968 68.6705 66.5646L65.3075 69.9275C63.8356 71.3994 61.4407 71.3994 59.9687 69.9275L49.8775 59.8363C48.4056 58.3643 48.4056 55.9694 49.8772 54.4975L53.2404 51.1342C53.837 50.5377 54.1658 49.7444 54.1658 48.9008C54.1658 48.0571 53.837 47.2638 53.2404 46.6673L49.7101 43.1373C49.4438 42.871 49.0119 42.871 48.7456 43.1373C48.4793 43.4036 48.4793 43.8356 48.7456 44.1019L52.2763 47.6318C52.6149 47.9708 52.8015 48.4213 52.8015 48.9008C52.8015 49.3799 52.6149 49.8307 52.2759 50.1697L50.1746 52.2707L40.8927 42.9892L42.9934 40.8882C43.6933 40.1885 44.8316 40.1885 45.5312 40.8882L46.7763 42.1333C47.043 42.3996 47.4746 42.3996 47.7409 42.1333C48.0072 41.867 48.0072 41.4351 47.7409 41.1688L46.4957 39.9236C45.2642 38.6921 43.2604 38.6921 42.0288 39.9236L39.4459 42.5066C36.5789 45.3732 35 49.1845 35 53.2387C35 57.2932 36.5789 61.1045 39.4459 63.9712L55.8338 80.3591C58.7197 83.2457 62.6009 84.8057 66.5758 84.8053C67.975 84.8053 69.3865 84.6117 70.7694 84.2147C73.224 83.5092 75.4819 82.1756 77.2985 80.3591L79.8814 77.7762C81.1129 76.5446 81.1129 74.5408 79.8814 73.3093ZM78.9168 76.8116L76.8158 78.9123L73.008 75.1045C72.7418 74.8382 72.3098 74.8382 72.0435 75.1045C71.7772 75.3708 71.7772 75.8027 72.0435 76.069L75.8384 79.8635C74.277 81.2778 72.408 82.3241 70.3926 82.9035C65.5588 84.2913 60.3496 82.9465 56.7984 79.3942L40.4105 63.0066C37.8013 60.3975 36.364 56.9287 36.364 53.2387C36.364 49.7772 37.6287 46.5104 39.9397 43.9652L49.21 53.2355L48.913 53.5326C46.9091 55.5364 46.9091 58.797 48.913 60.8008L59.0042 70.892C61.008 72.8959 64.2682 72.8959 66.2721 70.8924L66.5695 70.595L69.9974 74.0229C70.1305 74.156 70.3053 74.2228 70.4797 74.2228C70.6544 74.2228 70.8288 74.156 70.9619 74.0229C71.2282 73.7566 71.2282 73.3247 70.9619 73.0584L67.534 69.6304L69.6353 67.5291C69.9743 67.1901 70.4248 67.0035 70.9043 67.0035C71.3837 67.0035 71.8342 67.1901 72.1732 67.5291L78.9168 74.2738C79.2558 74.6128 79.4424 75.0633 79.4424 75.5427C79.4424 76.0218 79.2558 76.4727 78.9168 76.8116Z" fill="#58B7FF"/>
</g>
<g filter="url(#filter2_d)">
<path d="M63.5232 63.5256C63.6563 63.6587 63.8307 63.7254 64.0054 63.7254C64.1798 63.7254 64.3545 63.659 64.4877 63.5256L73.6021 54.4111L75.4791 56.2881C75.671 56.4803 75.9586 56.5397 76.2116 56.4405C76.4643 56.3409 76.6338 56.1008 76.6432 55.8296L77.0825 43.1509C77.0891 42.9619 77.0171 42.7787 76.8833 42.6449C76.7494 42.511 76.5663 42.4384 76.3773 42.4457L63.6986 42.885C63.4274 42.8944 63.1873 43.0639 63.0877 43.3166C62.9881 43.5692 63.0479 43.8568 63.2401 44.0491L65.1171 45.926L56.0023 55.0405C55.8744 55.1684 55.8027 55.3417 55.8027 55.5228C55.8027 55.7038 55.8744 55.8771 56.0023 56.005L63.5232 63.5256ZM66.5639 46.4083C66.6918 46.2804 66.7638 46.1067 66.7638 45.926C66.7638 45.745 66.6918 45.5717 66.5639 45.4438L65.3142 44.1941L75.694 43.8341L75.3341 54.214L74.0844 52.9643C73.8181 52.698 73.3862 52.698 73.1199 52.9643L64.0054 62.0788L57.4494 55.5228L66.5639 46.4083Z" fill="#58B7FF"/>
</g>
<defs>
<filter id="filter0_d" x="0" y="0" width="120" height="120" filterUnits="userSpaceOnUse" color-interpolation-filters="sRGB">
<feFlood flood-opacity="0" result="BackgroundImageFix"/>
<feColorMatrix in="SourceAlpha" type="matrix" values="0 0 0 0 0 0 0 0 0 0 0 0 0 0 0 0 0 0 127 0" result="hardAlpha"/>
<feMorphology radius="2" operator="dilate" in="SourceAlpha" result="effect1_dropShadow"/>
<feOffset/>
<feGaussianBlur stdDeviation="4"/>
<feColorMatrix type="matrix" values="0 0 0 0 0 0 0 0 0 0.465833 0 0 0 0 0.895833 0 0 0 0.16 0"/>
<feBlend mode="normal" in2="BackgroundImageFix" result="effect1_dropShadow"/>
<feBlend mode="normal" in="SourceGraphic" in2="effect1_dropShadow" result="shape"/>
</filter>
<filter id="filter1_d" x="27" y="31" width="61.805" height="61.8053" filterUnits="userSpaceOnUse" color-interpolation-filters="sRGB">
<feFlood flood-opacity="0" result="BackgroundImageFix"/>
<feColorMatrix in="SourceAlpha" type="matrix" values="0 0 0 0 0 0 0 0 0 0 0 0 0 0 0 0 0 0 127 0" result="hardAlpha"/>
<feOffset/>
<feGaussianBlur stdDeviation="4"/>
<feComposite in2="hardAlpha" operator="out"/>
<feColorMatrix type="matrix" values="0 0 0 0 0 0 0 0 0 0.466667 0 0 0 0 0.894118 0 0 0 0.25 0"/>
<feBlend mode="normal" in2="BackgroundImageFix" result="effect1_dropShadow"/>
<feBlend mode="normal" in="SourceGraphic" in2="effect1_dropShadow" result="shape"/>
</filter>
<filter id="filter2_d" x="47.8027" y="34.4452" width="37.2802" height="37.2803" filterUnits="userSpaceOnUse" color-interpolation-filters="sRGB">
<feFlood flood-opacity="0" result="BackgroundImageFix"/>
<feColorMatrix in="SourceAlpha" type="matrix" values="0 0 0 0 0 0 0 0 0 0 0 0 0 0 0 0 0 0 127 0" result="hardAlpha"/>
<feOffset/>
<feGaussianBlur stdDeviation="4"/>
<feComposite in2="hardAlpha" operator="out"/>
<feColorMatrix type="matrix" values="0 0 0 0 0 0 0 0 0 0.466667 0 0 0 0 0.894118 0 0 0 0.25 0"/>
<feBlend mode="normal" in2="BackgroundImageFix" result="effect1_dropShadow"/>
<feBlend mode="normal" in="SourceGraphic" in2="effect1_dropShadow" result="shape"/>
</filter>
</defs>
</svg>
