<svg width="120" height="120" viewBox="0 0 120 120" fill="none" xmlns="http://www.w3.org/2000/svg">
<g filter="url(#filter0_d)">
<ellipse cx="60" cy="60" rx="50" ry="50" transform="rotate(-180 60 60)" fill="white"/>
<path d="M11 60C11 32.9381 32.9381 11 60 11C87.062 11 109 32.9381 109 60C109 87.062 87.062 109 60 109C32.938 109 11 87.0619 11 60Z" stroke="#58B7FF" stroke-width="2"/>
</g>
<g filter="url(#filter1_d)">
<path d="M54.4932 47.0316C54.4932 42.9169 51.1454 39.5699 47.0315 39.5699C42.9176 39.5699 39.5698 42.9169 39.5698 47.0316C39.5698 51.1464 42.9176 54.4933 47.0315 54.4933C51.1454 54.4933 54.4932 51.1464 54.4932 47.0316ZM47.0315 52.8352C43.8313 52.8352 41.228 50.2311 41.228 47.0316C41.228 43.8322 43.8313 41.2281 47.0315 41.2281C50.2318 41.2281 52.8351 43.8322 52.8351 47.0316C52.8351 50.2311 50.2318 52.8352 47.0315 52.8352Z" fill="#58B7FF"/>
<path d="M47.0316 42.8862C44.7459 42.8862 42.8862 44.7459 42.8862 47.0316C42.8862 49.3174 44.7459 51.177 47.0316 51.177C49.3174 51.177 51.177 49.3174 51.177 47.0316C51.177 44.7459 49.3174 42.8862 47.0316 42.8862ZM47.0316 49.5189C45.6603 49.5189 44.5444 48.4029 44.5444 47.0316C44.5444 45.6603 45.6603 44.5444 47.0316 44.5444C48.4029 44.5444 49.5189 45.6603 49.5189 47.0316C49.5189 48.4029 48.4029 49.5189 47.0316 49.5189Z" fill="#58B7FF"/>
<path d="M77.7075 76.8784C77.7075 75.5071 78.8235 74.3912 80.1947 74.3912H86L85.9933 71.6262L85.8283 71.4057C84.0873 69.0884 81.4292 67.7586 78.5366 67.7586V44.5444C78.5366 43.1731 77.4207 42.0572 76.0494 42.0572H74.3912V39.4174C75.3538 39.0741 76.0494 38.1622 76.0494 37.0827C76.0494 35.7114 74.9334 34.5955 73.5621 34.5955C72.1908 34.5955 71.0749 35.7114 71.0749 37.0827C71.0749 38.1622 71.7705 39.0741 72.733 39.4174V42.0572H66.1004V39.4174C67.063 39.0741 67.7586 38.1622 67.7586 37.0827C67.7586 35.7114 66.6426 34.5955 65.2713 34.5955C63.9 34.5955 62.7841 35.7114 62.7841 37.0827C62.7841 38.1622 63.4797 39.0741 64.4423 39.4174V42.0572H61.126V43.7153H76.0494C76.5062 43.7153 76.8784 44.0867 76.8784 44.5444V52.0061H57.0859L56.8131 51.5468C56.935 51.284 57.0461 51.0178 57.1447 50.7542L59.4678 50.1631V43.8994L57.1447 43.3082C57.0461 43.0446 56.9358 42.7785 56.8131 42.5156L58.0401 40.4521L53.6112 36.0231L51.5476 37.2493C51.2848 37.1275 51.0195 37.0164 50.755 36.9177L50.1631 34.5955H43.8994L43.3091 36.9185C43.0446 37.0172 42.7793 37.1283 42.5165 37.2502L40.4521 36.024L36.0231 40.4521L37.2502 42.5156C37.1283 42.7785 37.0172 43.0446 36.9185 43.3082L34.5955 43.9002V50.1639L36.9185 50.755C37.0172 51.0187 37.1275 51.2848 37.2502 51.5476L36.0231 53.6112L40.4521 58.0401L42.5156 56.8139C42.7785 56.9358 43.0438 57.0469 43.3082 57.1456L43.9002 59.4678H50.1639L50.755 57.1447C51.0195 57.0461 51.2848 56.935 51.5476 56.8131L52.0061 57.0859V61.126H39.4174C39.0741 60.1634 38.1622 59.4678 37.0827 59.4678C35.7114 59.4678 34.5955 60.5837 34.5955 61.955C34.5955 63.3263 35.7114 64.4423 37.0827 64.4423C38.1622 64.4423 39.0741 63.7467 39.4174 62.7841H52.0061V66.9295H43.5628C43.2195 65.9669 42.3075 65.2713 41.2281 65.2713C39.8568 65.2713 38.7408 66.3873 38.7408 67.7586C38.7408 69.1299 39.8568 70.2458 41.2281 70.2458C42.3075 70.2458 43.2195 69.5502 43.5628 68.5877H52.0061V71.904H39.5699C36.8265 71.904 34.5955 74.135 34.5955 76.8784C34.5955 79.6219 36.8265 81.8529 39.5699 81.8529H69.6613C70.3967 81.8529 71.0815 82.1688 71.5408 82.7185C73.2794 84.8028 75.8297 85.9983 78.5366 85.9983C81.4301 85.9983 84.0881 84.6685 85.8283 82.3512L85.9933 82.1306L86 79.3657H80.1947C78.8235 79.3657 77.7075 78.2497 77.7075 76.8784ZM73.5621 36.2536C74.0189 36.2536 74.3912 36.625 74.3912 37.0827C74.3912 37.5403 74.0189 37.9118 73.5621 37.9118C73.1053 37.9118 72.733 37.5403 72.733 37.0827C72.733 36.625 73.1053 36.2536 73.5621 36.2536ZM65.2713 36.2536C65.7282 36.2536 66.1004 36.625 66.1004 37.0827C66.1004 37.5403 65.7282 37.9118 65.2713 37.9118C64.8145 37.9118 64.4423 37.5403 64.4423 37.0827C64.4423 36.625 64.8145 36.2536 65.2713 36.2536ZM37.0827 62.7841C36.6259 62.7841 36.2536 62.4127 36.2536 61.955C36.2536 61.4974 36.6259 61.126 37.0827 61.126C37.5395 61.126 37.9118 61.4974 37.9118 61.955C37.9118 62.4127 37.5395 62.7841 37.0827 62.7841ZM41.2281 68.5877C40.7713 68.5877 40.399 68.2162 40.399 67.7586C40.399 67.3009 40.7713 66.9295 41.2281 66.9295C41.6849 66.9295 42.0572 67.3009 42.0572 67.7586C42.0572 68.2162 41.6849 68.5877 41.2281 68.5877ZM57.9862 53.6643H76.8784V61.955H53.6643V57.9862L57.9862 53.6643ZM51.2035 55.1342C50.7409 55.373 50.2717 55.5695 49.8082 55.7179L49.3705 55.8572L48.8747 57.8096H45.1894L44.6928 55.858L44.255 55.7187C43.7916 55.5703 43.3223 55.3738 42.8597 55.135L42.451 54.9228L40.7132 55.9558L38.1074 53.35L39.1405 51.6131L38.9299 51.2052C38.6903 50.7409 38.4946 50.2717 38.3462 49.8074L38.2053 49.3696L36.2536 48.8747V45.1894L38.2053 44.6936L38.3454 44.2559C38.4938 43.7916 38.6894 43.3223 38.929 42.8581L39.1396 42.4501L38.1074 40.7132L40.7132 38.1074L42.451 39.1405L42.8597 38.9282C43.3223 38.6894 43.7916 38.493 44.255 38.3445L44.6928 38.2053L45.1886 36.2536H48.8738L49.3705 38.2053L49.8082 38.3445C50.2717 38.493 50.7409 38.6894 51.2035 38.9282L51.6123 39.1405L53.35 38.1074L55.9558 40.7132L54.9228 42.4501L55.1334 42.8581C55.373 43.3223 55.5686 43.7916 55.717 44.2559L55.8572 44.6936L57.8096 45.1886V48.8738L55.858 49.3696L55.7179 49.8074C55.5695 50.2717 55.3738 50.7409 55.1342 51.2052L54.9236 51.6131L55.9567 53.35L53.5482 55.7577H53.0176L51.6123 54.922L51.2035 55.1342ZM53.6643 63.6132H76.8784V67.9227C76.2707 68.0355 75.6812 68.2096 75.1133 68.4401C75.1763 68.222 75.2203 67.9965 75.2203 67.7586C75.2203 66.3873 74.1043 65.2713 72.733 65.2713C71.3618 65.2713 70.2458 66.3873 70.2458 67.7586C70.2458 68.9947 71.1545 70.0153 72.3384 70.206C72.059 70.4663 71.7896 70.7408 71.5417 71.0384C71.0824 71.5881 70.3967 71.904 69.6613 71.904H53.6643V63.6132ZM72.733 68.5877C72.2762 68.5877 71.904 68.2162 71.904 67.7586C71.904 67.3009 72.2762 66.9295 72.733 66.9295C73.1899 66.9295 73.5621 67.3009 73.5621 67.7586C73.5621 68.2162 73.1899 68.5877 72.733 68.5877ZM84.3368 81.5677C82.9125 83.3328 80.8141 84.3401 78.5366 84.3401C76.323 84.3401 74.237 83.3618 72.8143 81.6564C72.0391 80.7278 70.89 80.1948 69.6613 80.1948H39.5699C37.741 80.1948 36.2536 78.7074 36.2536 76.8784C36.2536 75.0495 37.741 73.5621 39.5699 73.5621H69.6613C70.8892 73.5621 72.0391 73.029 72.8143 72.1005C74.237 70.395 76.323 69.4167 78.5366 69.4167C80.8132 69.4167 82.9125 70.4241 84.3368 72.1892L84.3385 72.733H80.1947C77.909 72.733 76.0494 74.5927 76.0494 76.8784C76.0494 79.1642 77.909 81.0238 80.1947 81.0238H84.3385L84.3368 81.5677Z" fill="#58B7FF"/>
<path d="M75.2203 47.8606C75.2203 46.4894 74.1044 45.3734 72.7331 45.3734C71.3618 45.3734 70.2458 46.4894 70.2458 47.8606C70.2458 49.2319 71.3618 50.3479 72.7331 50.3479C74.1044 50.3479 75.2203 49.2319 75.2203 47.8606ZM71.904 47.8606C71.904 47.403 72.2763 47.0316 72.7331 47.0316C73.1899 47.0316 73.5622 47.403 73.5622 47.8606C73.5622 48.3183 73.1899 48.6897 72.7331 48.6897C72.2763 48.6897 71.904 48.3183 71.904 47.8606Z" fill="#58B7FF"/>
<path d="M68.5877 47.8606C68.5877 46.4894 67.4718 45.3734 66.1005 45.3734C64.7292 45.3734 63.6133 46.4894 63.6133 47.8606C63.6133 49.2319 64.7292 50.3479 66.1005 50.3479C67.4718 50.3479 68.5877 49.2319 68.5877 47.8606ZM65.2714 47.8606C65.2714 47.403 65.6437 47.0316 66.1005 47.0316C66.5573 47.0316 66.9296 47.403 66.9296 47.8606C66.9296 48.3183 66.5573 48.6897 66.1005 48.6897C65.6437 48.6897 65.2714 48.3183 65.2714 47.8606Z" fill="#58B7FF"/>
<path d="M64.4421 60.2969C65.8134 60.2969 66.9293 59.1809 66.9293 57.8096C66.9293 56.4383 65.8134 55.3224 64.4421 55.3224C63.0708 55.3224 61.9548 56.4383 61.9548 57.8096C61.9548 59.1809 63.0708 60.2969 64.4421 60.2969ZM64.4421 56.9805C64.8989 56.9805 65.2711 57.352 65.2711 57.8096C65.2711 58.2673 64.8989 58.6387 64.4421 58.6387C63.9852 58.6387 63.613 58.2673 63.613 57.8096C63.613 57.352 63.9852 56.9805 64.4421 56.9805Z" fill="#58B7FF"/>
<path d="M57.8097 60.2969C59.181 60.2969 60.297 59.1809 60.297 57.8096C60.297 56.4383 59.181 55.3224 57.8097 55.3224C56.4384 55.3224 55.3225 56.4383 55.3225 57.8096C55.3225 59.1809 56.4384 60.2969 57.8097 60.2969ZM57.8097 56.9805C58.2666 56.9805 58.6388 57.352 58.6388 57.8096C58.6388 58.2673 58.2666 58.6387 57.8097 58.6387C57.3529 58.6387 56.9807 58.2673 56.9807 57.8096C56.9807 57.352 57.3529 56.9805 57.8097 56.9805Z" fill="#58B7FF"/>
<path d="M66.1005 65.2714C64.7292 65.2714 63.6133 66.3873 63.6133 67.7586C63.6133 69.1299 64.7292 70.2458 66.1005 70.2458C67.4718 70.2458 68.5877 69.1299 68.5877 67.7586C68.5877 66.3873 67.4718 65.2714 66.1005 65.2714ZM66.1005 68.5877C65.6437 68.5877 65.2714 68.2162 65.2714 67.7586C65.2714 67.3009 65.6437 66.9295 66.1005 66.9295C66.5573 66.9295 66.9296 67.3009 66.9296 67.7586C66.9296 68.2162 66.5573 68.5877 66.1005 68.5877Z" fill="#58B7FF"/>
<path d="M55.3225 65.2714H56.9807V66.9295H55.3225V65.2714Z" fill="#58B7FF"/>
<path d="M55.3225 68.5876H56.9807V70.2458H55.3225V68.5876Z" fill="#58B7FF"/>
<path d="M73.562 55.3224H75.2202V56.9805H73.562V55.3224Z" fill="#58B7FF"/>
<path d="M73.562 58.6387H75.2202V60.2968H73.562V58.6387Z" fill="#58B7FF"/>
</g>
<defs>
<filter id="filter0_d" x="0" y="0" width="120" height="120" filterUnits="userSpaceOnUse" color-interpolation-filters="sRGB">
<feFlood flood-opacity="0" result="BackgroundImageFix"/>
<feColorMatrix in="SourceAlpha" type="matrix" values="0 0 0 0 0 0 0 0 0 0 0 0 0 0 0 0 0 0 127 0" result="hardAlpha"/>
<feMorphology radius="2" operator="dilate" in="SourceAlpha" result="effect1_dropShadow"/>
<feOffset/>
<feGaussianBlur stdDeviation="4"/>
<feColorMatrix type="matrix" values="0 0 0 0 0 0 0 0 0 0.465833 0 0 0 0 0.895833 0 0 0 0.16 0"/>
<feBlend mode="normal" in2="BackgroundImageFix" result="effect1_dropShadow"/>
<feBlend mode="normal" in="SourceGraphic" in2="effect1_dropShadow" result="shape"/>
</filter>
<filter id="filter1_d" x="26.5955" y="26.5955" width="67.4045" height="67.4028" filterUnits="userSpaceOnUse" color-interpolation-filters="sRGB">
<feFlood flood-opacity="0" result="BackgroundImageFix"/>
<feColorMatrix in="SourceAlpha" type="matrix" values="0 0 0 0 0 0 0 0 0 0 0 0 0 0 0 0 0 0 127 0" result="hardAlpha"/>
<feOffset/>
<feGaussianBlur stdDeviation="4"/>
<feComposite in2="hardAlpha" operator="out"/>
<feColorMatrix type="matrix" values="0 0 0 0 0 0 0 0 0 0.466667 0 0 0 0 0.894118 0 0 0 0.16 0"/>
<feBlend mode="normal" in2="BackgroundImageFix" result="effect1_dropShadow"/>
<feBlend mode="normal" in="SourceGraphic" in2="effect1_dropShadow" result="shape"/>
</filter>
</defs>
</svg>
