<svg width="120" height="120" viewBox="0 0 120 120" fill="none" xmlns="http://www.w3.org/2000/svg">
<g filter="url(#filter0_di)">
<ellipse cx="60" cy="60" rx="50" ry="50" transform="rotate(-180 60 60)" fill="white"/>
<path d="M11 60C11 32.9381 32.9381 11 60 11C87.062 11 109 32.9381 109 60C109 87.062 87.062 109 60 109C32.938 109 11 87.0619 11 60Z" stroke="#58B7FF" stroke-width="2"/>
</g>
<g filter="url(#filter1_d)">
<path d="M37.2161 49.2664V52.7386L35.563 54.3917L36.9325 55.7611L41.2901 51.4036C41.4937 51.2 41.7699 51.0856 42.0578 51.0856C42.3458 51.0856 42.622 51.2 42.8256 51.4036C43.0292 51.6072 43.1436 51.8834 43.1436 52.1714C43.1436 52.4593 43.0292 52.7355 42.8256 52.9391L38.4681 57.2967C38.3781 57.3866 38.3068 57.4933 38.2581 57.6108C38.2095 57.7283 38.1844 57.8542 38.1844 57.9814C38.1844 58.1086 38.2095 58.2345 38.2581 58.352C38.3068 58.4695 38.3781 58.5762 38.4681 58.6661C39.3124 59.5125 39.7866 60.6593 39.7866 61.8548C39.7866 63.0503 39.3124 64.197 38.4681 65.0434L33.6264 69.8851L34.9958 71.2546L37.2161 69.0343V76.3799C37.2173 77.4068 37.6257 78.3913 38.3519 79.1175C39.078 79.8436 40.0626 80.2521 41.0895 80.2532H63.3613V78.3166H45.9312V76.3799H63.3613V74.4432H41.0895C40.576 74.4426 40.0838 74.2383 39.7207 73.8753C39.3577 73.5122 39.1534 73.02 39.1528 72.5065V67.0976L39.8375 66.4129C40.9276 65.3224 41.5909 63.8774 41.7072 62.34C41.8235 60.8025 41.3851 59.2742 40.4716 58.0321L44.1951 54.3086C44.7579 53.7409 45.0729 52.9734 45.0712 52.1741C45.0695 51.3747 44.7511 50.6085 44.1859 50.0433C43.6206 49.4781 42.8545 49.1597 42.0551 49.158C41.2558 49.1563 40.4882 49.4713 39.9206 50.0341L39.1528 50.8019V39.583C39.1534 39.0695 39.3577 38.5773 39.7207 38.2142C40.0838 37.8511 40.576 37.6469 41.0895 37.6463H81.7598C82.2732 37.6469 82.7655 37.8511 83.1285 38.2142C83.4916 38.5773 83.6958 39.0695 83.6964 39.583V66.6965H85.6331V39.583C85.632 38.556 85.2235 37.5715 84.4974 36.8453C83.7712 36.1192 82.7867 35.7107 81.7598 35.7096H41.0895C40.0626 35.7107 39.078 36.1192 38.3519 36.8453C37.6257 37.5715 37.2173 38.556 37.2161 39.583V47.3297H34.3111C33.2842 47.3308 32.2996 47.7393 31.5735 48.4654C30.8474 49.1916 30.4389 50.1761 30.4377 51.203V59.5171L28.7847 61.17L30.1541 62.5395L32.0908 60.6028C32.1807 60.5129 32.2521 60.4062 32.3007 60.2887C32.3494 60.1712 32.3744 60.0453 32.3744 59.9181V51.203C32.375 50.6896 32.5793 50.1973 32.9423 49.8343C33.3054 49.4712 33.7977 49.267 34.3111 49.2664H37.2161ZM41.0895 76.3799H43.9945V78.3166H41.0895C40.576 78.3159 40.0838 78.1117 39.7207 77.7486C39.3577 77.3856 39.1534 76.8933 39.1528 76.3799V75.8594C39.741 76.201 40.4093 76.3805 41.0895 76.3799Z" fill="#58B7FF"/>
<path d="M83.6965 68.6332C83.3666 68.6331 83.0391 68.6894 82.7282 68.7997V68.6332C82.7286 68.1258 82.5959 67.6271 82.3435 67.1869C82.0911 66.7467 81.7277 66.3803 81.2895 66.1244C80.8514 65.8684 80.3538 65.7318 79.8464 65.7281C79.339 65.7244 78.8394 65.8538 78.3976 66.1034C78.0453 65.5497 77.5157 65.1318 76.8952 64.918C76.2747 64.7042 75.6 64.7072 74.9814 64.9264V63.7915C74.9814 63.021 74.6754 62.2821 74.1306 61.7373C73.5858 61.1925 72.8469 60.8865 72.0764 60.8865C71.306 60.8865 70.5671 61.1925 70.0223 61.7373C69.4775 62.2821 69.1714 63.021 69.1714 63.7915V71.9081L68.1573 72.4152C67.3472 72.8199 66.6576 73.4304 66.1576 74.1855C65.6576 74.9406 65.3648 75.8138 65.3084 76.7177C65.252 77.6216 65.434 78.5244 65.8363 79.3358C66.2386 80.1472 66.847 80.8386 67.6005 81.341L70.2421 83.1021C70.5085 83.279 70.727 83.5191 70.8781 83.8009C71.0291 84.0827 71.1082 84.3976 71.1081 84.7173V88H73.0448V84.7173C73.0452 84.0788 72.8876 83.4502 72.5862 82.8873C72.2848 82.3245 71.8488 81.8449 71.3171 81.4914L69.7073 80.4147L68.6745 79.7295C67.9761 79.2644 67.4861 78.5456 67.3083 77.7255C67.1306 76.9054 67.279 76.0483 67.7222 75.3357C68.0362 74.8254 68.4873 74.4135 69.024 74.147L69.1719 74.0731V77.3483H71.1086V63.7915C71.1086 63.5347 71.2106 63.2884 71.3922 63.1068C71.5738 62.9252 71.8201 62.8232 72.0769 62.8232C72.3337 62.8232 72.58 62.9252 72.7616 63.1068C72.9432 63.2884 73.0452 63.5347 73.0452 63.7915V71.5382H74.9819V67.6649C74.9819 67.408 75.0839 67.1617 75.2655 66.9801C75.4471 66.7985 75.6934 66.6965 75.9503 66.6965C76.2071 66.6965 76.4534 66.7985 76.635 66.9801C76.8166 67.1617 76.9186 67.408 76.9186 67.6649V72.5066H78.8553V68.6332C78.8553 68.3764 78.9573 68.1301 79.1389 67.9485C79.3205 67.7669 79.5668 67.6649 79.8236 67.6649C80.0804 67.6649 80.3267 67.7669 80.5083 67.9485C80.6899 68.1301 80.792 68.3764 80.792 68.6332V73.4749H82.7286V71.5382C82.7286 71.2814 82.8307 71.0351 83.0123 70.8535C83.1939 70.6719 83.4402 70.5699 83.697 70.5699C83.9538 70.5699 84.2001 70.6719 84.3817 70.8535C84.5633 71.0351 84.6653 71.2814 84.6653 71.5382V74.9544C84.6622 77.6516 84.0343 80.3114 82.8309 82.7253C82.7635 82.8597 82.7283 83.0079 82.7282 83.1583V88H84.6648V83.3837C85.936 80.7553 86.598 77.874 86.6015 74.9544V71.5382C86.6006 70.768 86.2943 70.0296 85.7497 69.485C85.2051 68.9404 84.4667 68.6341 83.6965 68.6332Z" fill="#58B7FF"/>
<path d="M71.3942 45.9655C70.6848 45.9655 69.9912 46.1758 69.4013 46.57C68.8114 46.9641 68.3517 47.5244 68.0802 48.1798C67.8087 48.8353 67.7376 49.5565 67.8761 50.2524C68.0145 50.9482 68.3561 51.5873 68.8578 52.089C69.3594 52.5907 69.9986 52.9323 70.6944 53.0707C71.3902 53.2091 72.1115 53.1381 72.7669 52.8666C73.4224 52.5951 73.9826 52.1353 74.3768 51.5454C74.7709 50.9555 74.9813 50.262 74.9813 49.5525C74.9803 48.6015 74.602 47.6897 73.9295 47.0173C73.257 46.3448 72.3453 45.9665 71.3942 45.9655ZM71.3942 51.203C71.0678 51.203 70.7487 51.1062 70.4773 50.9248C70.2059 50.7435 69.9944 50.4857 69.8694 50.1841C69.7445 49.8826 69.7118 49.5507 69.7755 49.2306C69.8392 48.9104 69.9964 48.6163 70.2272 48.3855C70.458 48.1547 70.7521 47.9975 71.0722 47.9338C71.3924 47.8702 71.7242 47.9028 72.0258 48.0278C72.3274 48.1527 72.5851 48.3642 72.7665 48.6356C72.9478 48.907 73.0446 49.2261 73.0446 49.5525C73.0442 49.9901 72.8701 50.4096 72.5607 50.719C72.2513 51.0284 71.8318 51.2025 71.3942 51.203Z" fill="#58B7FF"/>
<path d="M80.4719 47.9244C80.6204 47.7904 80.7237 47.6138 80.7677 47.4187C80.8117 47.2237 80.7943 47.0198 80.7178 46.835L79.9088 44.8819C79.8331 44.6966 79.7015 44.5395 79.5322 44.4325C79.363 44.3256 79.1646 44.2742 78.9647 44.2854L77.137 44.3786L76.5681 43.8097L76.6614 41.982C76.6716 41.7822 76.6197 41.5843 76.5129 41.4152C76.4061 41.2462 76.2495 41.1143 76.0648 41.0378L74.1116 40.229C73.9269 40.1524 73.723 40.1349 73.5279 40.1789C73.3328 40.2229 73.1562 40.3262 73.0222 40.4747L71.7963 41.8327H70.9916L69.7661 40.4751C69.6321 40.3267 69.4554 40.2234 69.2604 40.1794C69.0653 40.1354 68.8614 40.1529 68.6767 40.2294L66.7236 41.0382C66.5388 41.1147 66.3823 41.2466 66.2755 41.4156C66.1687 41.5847 66.1168 41.7826 66.1271 41.9823L66.2203 43.8101L65.6514 44.379L63.8236 44.2858C63.6237 44.2744 63.4252 44.3257 63.2559 44.4327C63.0866 44.5396 62.955 44.6968 62.8795 44.8823L62.0707 46.8354C61.9941 47.0201 61.9767 47.224 62.0207 47.4191C62.0647 47.6141 62.168 47.7908 62.3164 47.9248L63.6744 49.1507V49.9554L62.3168 51.181C62.1683 51.3149 62.065 51.4916 62.021 51.6867C61.977 51.8817 61.9945 52.0856 62.071 52.2703L62.8798 54.2235C62.9557 54.4087 63.0874 54.5657 63.2566 54.6726C63.4258 54.7795 63.6241 54.8311 63.824 54.8201L65.6517 54.7268L66.2206 55.2957L66.1274 57.1234C66.1172 57.3231 66.169 57.5211 66.2758 57.6901C66.3827 57.8592 66.5392 57.991 66.7239 58.0675L68.6771 58.8765C68.8618 58.953 69.0657 58.9704 69.2608 58.9264C69.4558 58.8824 69.6325 58.7791 69.7664 58.6306L70.9924 57.2728H71.797L73.023 58.6306C73.1569 58.7791 73.3336 58.8824 73.5286 58.9264C73.7237 58.9704 73.9276 58.953 74.1123 58.8765L76.0655 58.0675C76.2503 57.991 76.4068 57.8592 76.5136 57.6902C76.6205 57.5211 76.6723 57.3231 76.6621 57.1234L76.5688 55.2957L77.1377 54.7268L78.9654 54.8201C79.1652 54.8307 79.3633 54.7789 79.5325 54.6721C79.7016 54.5652 79.8333 54.4085 79.9096 54.2235L80.7185 52.2703C80.795 52.0856 80.8124 51.8817 80.7684 51.6866C80.7244 51.4916 80.6211 51.3149 80.4726 51.181L79.1148 49.955V49.1503L80.4719 47.9244ZM77.4968 51.1043L78.6669 52.1607L78.381 52.8506L76.8065 52.7702C76.6712 52.7634 76.536 52.785 76.4095 52.8336C76.2831 52.8822 76.1682 52.9568 76.0724 53.0525L74.8946 54.2303C74.7989 54.3261 74.7242 54.4409 74.6756 54.5674C74.627 54.6938 74.6054 54.8291 74.6124 54.9644L74.6927 56.5389L74.0028 56.8248L72.9465 55.6547C72.8557 55.5541 72.7448 55.4737 72.6209 55.4187C72.4971 55.3637 72.3631 55.3352 72.2276 55.3352H70.5621C70.4266 55.3352 70.2926 55.3637 70.1688 55.4187C70.045 55.4737 69.9341 55.5541 69.8433 55.6547L68.7868 56.8248L68.0969 56.5389L68.1773 54.9644C68.1843 54.8291 68.1627 54.6938 68.1141 54.5673C68.0655 54.4409 67.9908 54.326 67.895 54.2303L66.7174 53.0525C66.6215 52.9568 66.5066 52.8822 66.3802 52.8336C66.2537 52.785 66.1185 52.7634 65.9831 52.7702L64.4087 52.8506L64.1227 52.1607L65.2928 51.1043C65.3934 51.0135 65.4739 50.9026 65.5289 50.7788C65.5839 50.655 65.6124 50.521 65.6124 50.3855V48.7199C65.6124 48.5844 65.5839 48.4504 65.5289 48.3266C65.4738 48.2028 65.3934 48.0919 65.2928 48.0012L64.1227 46.9447L64.4087 46.2548L65.9831 46.3351C66.1185 46.3421 66.2538 46.3206 66.3802 46.272C66.5067 46.2234 66.6216 46.1487 66.7174 46.0529L67.895 44.8752C67.9908 44.7794 68.0654 44.6645 68.1141 44.5381C68.1627 44.4116 68.1842 44.2763 68.1773 44.141L68.0969 42.5666L68.7868 42.2806L69.8433 43.4507C69.9341 43.5513 70.045 43.6317 70.1688 43.6867C70.2926 43.7418 70.4266 43.7702 70.5621 43.7702H72.2276C72.3631 43.7702 72.4971 43.7418 72.6209 43.6868C72.7448 43.6317 72.8557 43.5513 72.9465 43.4507L74.0028 42.2806L74.6927 42.5666L74.6124 44.141C74.6054 44.2763 74.627 44.4116 74.6756 44.5381C74.7242 44.6645 74.7988 44.7794 74.8946 44.8752L76.0724 46.0529C76.1682 46.1487 76.283 46.2233 76.4095 46.2719C76.536 46.3205 76.6712 46.3421 76.8065 46.3351L78.381 46.2548L78.6669 46.9447L77.4968 48.0012C77.3963 48.092 77.3159 48.2028 77.2608 48.3266C77.2058 48.4505 77.1774 48.5844 77.1774 48.7199V50.3855C77.1774 50.521 77.2058 50.655 77.2608 50.7788C77.3158 50.9026 77.3962 51.0135 77.4968 51.1043Z" fill="#58B7FF"/>
<path d="M43.9945 68.6332V70.5699H65.298V68.6332H63.3613V65.7282H61.4246V68.6332H59.4879V63.7915H57.5513V68.6332H55.6146V60.8865H53.6779V68.6332H51.7412V63.7915H49.8045V68.6332H47.8679V65.7282H45.9312V68.6332H43.9945Z" fill="#58B7FF"/>
<path d="M44.9629 41.5195H46.8996V43.4562H44.9629V41.5195Z" fill="#58B7FF"/>
<path d="M48.8363 41.5195H58.5197V43.4562H48.8363V41.5195Z" fill="#58B7FF"/>
<path d="M43.0261 45.3929H58.5196V47.3296H43.0261V45.3929Z" fill="#58B7FF"/>
<path d="M46.8997 49.2665H58.5197V51.2032H46.8997V49.2665Z" fill="#58B7FF"/>
<path d="M46.8997 53.1396H56.5831V55.0763H46.8997V53.1396Z" fill="#58B7FF"/>
</g>
<defs>
<filter id="filter0_di" x="0" y="0" width="120" height="120" filterUnits="userSpaceOnUse" color-interpolation-filters="sRGB">
<feFlood flood-opacity="0" result="BackgroundImageFix"/>
<feColorMatrix in="SourceAlpha" type="matrix" values="0 0 0 0 0 0 0 0 0 0 0 0 0 0 0 0 0 0 127 0" result="hardAlpha"/>
<feMorphology radius="2" operator="dilate" in="SourceAlpha" result="effect1_dropShadow"/>
<feOffset/>
<feGaussianBlur stdDeviation="4"/>
<feColorMatrix type="matrix" values="0 0 0 0 0 0 0 0 0 0.465833 0 0 0 0 0.895833 0 0 0 0.16 0"/>
<feBlend mode="normal" in2="BackgroundImageFix" result="effect1_dropShadow"/>
<feBlend mode="normal" in="SourceGraphic" in2="effect1_dropShadow" result="shape"/>
<feColorMatrix in="SourceAlpha" type="matrix" values="0 0 0 0 0 0 0 0 0 0 0 0 0 0 0 0 0 0 127 0" result="hardAlpha"/>
<feMorphology radius="8" operator="erode" in="SourceAlpha" result="effect2_innerShadow"/>
<feOffset dx="6"/>
<feGaussianBlur stdDeviation="8"/>
<feComposite in2="hardAlpha" operator="arithmetic" k2="-1" k3="1"/>
<feColorMatrix type="matrix" values="0 0 0 0 0.875 0 0 0 0 0.875 0 0 0 0 0.875 0 0 0 0.25 0"/>
<feBlend mode="normal" in2="shape" result="effect2_innerShadow"/>
</filter>
<filter id="filter1_d" x="20.7847" y="27.7096" width="73.8168" height="68.2904" filterUnits="userSpaceOnUse" color-interpolation-filters="sRGB">
<feFlood flood-opacity="0" result="BackgroundImageFix"/>
<feColorMatrix in="SourceAlpha" type="matrix" values="0 0 0 0 0 0 0 0 0 0 0 0 0 0 0 0 0 0 127 0" result="hardAlpha"/>
<feOffset/>
<feGaussianBlur stdDeviation="4"/>
<feComposite in2="hardAlpha" operator="out"/>
<feColorMatrix type="matrix" values="0 0 0 0 0 0 0 0 0 0.466667 0 0 0 0 0.894118 0 0 0 0.16 0"/>
<feBlend mode="normal" in2="BackgroundImageFix" result="effect1_dropShadow"/>
<feBlend mode="normal" in="SourceGraphic" in2="effect1_dropShadow" result="shape"/>
</filter>
</defs>
</svg>
