<svg width="14" height="23" viewBox="0 0 14 23" fill="none" xmlns="http://www.w3.org/2000/svg">
<path d="M9.691 8.80243C10.8844 7.45913 12.4983 5.64237 12.6454 1.30212H13.7109V0H0V1.30212H1.06555C1.21264 5.64237 2.82653 7.45913 4.01994 8.80243C4.82048 9.70354 5.27344 10.2551 5.27344 11.1114C5.27344 11.9677 4.82048 12.5192 4.01994 13.4203C2.82653 14.7636 1.21264 16.5804 1.06555 20.9207H0V22.2228H13.7109V20.9207H12.6454C12.4983 16.5804 10.8844 14.7636 9.691 13.4203C8.89045 12.5192 8.4375 11.9677 8.4375 11.1114C8.4375 10.2551 8.89045 9.70354 9.691 8.80243ZM6.32812 15.9916C6.16525 16.0331 6.00434 16.0935 5.84729 16.1737L2.61724 17.8239C3.14473 16.168 3.99431 15.2113 4.73052 14.3826C5.55212 13.4578 6.32812 12.5843 6.32812 11.1114V15.9916ZM8.98042 14.3826C9.71663 15.2113 10.5662 16.168 11.0937 17.8238L7.86364 16.1737C7.7066 16.0935 7.54569 16.0331 7.38281 15.9916V11.1114C7.38281 12.5843 8.15882 13.4578 8.98042 14.3826ZM2.59872 4.34039C2.34373 3.5201 2.16763 2.52966 2.12154 1.30212H11.5894C11.5433 2.52966 11.3672 3.5201 11.1122 4.34039H2.59872Z" fill="#0086E7"/>
</svg>
