<svg xmlns="http://www.w3.org/2000/svg" viewBox="0 0 3521.78277 814.29493">

  <g id="Слой_2" data-name="Слой 2">
    <g id="Слой_1-2" data-name="Слой 1">
      <path class="cls-1" d="M13.52094,12.18931C358.57073-88.59188,1069.71083,521.389,1306.94484,641.242c287.883,145.435,372.237-583.13611,516.551-411.188,187.699,223.579,358.609,218.6502,685.969,82.05322S3521.37474,481.45572,3521.37474,481.45572"/>
      <path class="cls-2" d="M12.96044,41.64851C367.87975-45.95359,1092.79883,503.869,1325.19084,627.132c291.98,154.893,376.334-564.219,522.134-393.512,186.96,219.703,345.58,239.58221,671.63,100.34921,327.36-140.164,1000.56006,153.68849,1000.56006,153.68849"/>
      <path class="cls-3" d="M12.21824,70.95251C376.82073-3.4705,1115.51982,486.504,1343.25682,613.023c296.262,164.506,380.802-545.304,527.728-375.837,186.21,215.982,332.72,260.66821,657.47,118.64419,327.36-143.574,989.01,138.02953,989.01,138.02953"/>
      <path class="cls-4" d="M11.65964,100.41161C385.94472,39.32271,1138.23784,469.448,1361.50585,598.913c300.359,174.119,385.458-526.543,533.309-358.316,186.03,211.796,319.88,281.60025,643.31994,137.09521,327.36011-147.14,977.66016,122.36949,977.66016,122.36949"/>
      <path class="cls-5" d="M10.91354,129.71531C395.06774,81.80571,1160.76784,452.548,1379.56682,584.804c304.456,184.042,390.113-507.782,539.07806-340.641,185.27991,207.92,307.02991,302.68621,628.98987,155.3912,327.36011-150.707,966.29,106.86455,966.29,106.86455"/>
      <path class="cls-6" d="M10.35494,159.17532C404.19274,124.44431,1183.29982,435.803,1397.62883,570.695c308.739,194.12,394.583-488.867,544.666-322.965,184.7301,204.043,294.18,323.61721,614.84,173.68621,327.36011-154.118,954.75,91.20451,954.75,91.20451"/>
      <path class="cls-7" d="M9.79634,188.47831C413.31673,166.92732,1205.83083,419.057,1415.87785,556.43c312.463,204.508,398.865-469.796,550.257-305.135,184.15992,200.167,281.33,344.54922,600.67994,192.13723,327.36-157.684,943.39,75.54549,943.39,75.54549"/>
      <path class="cls-8" d="M9.05029,217.93831C422.25374,209.56532,1228.17583,402.623,1433.93883,542.476c316.374,214.741,403.335-451.035,555.84595-287.614,183.41,196.291,268.48,365.63521,586.34008,210.43221,327.36-161.25,932.02991,59.88552,932.02991,59.88552"/>
      <path class="cls-9" d="M8.49365,247.24231c422.8861,4.961,1242.02919,138.94566,1443.69616,280.96965,320.098,225.439,407.615-431.964,561.425-269.939,182.67994,192.57,256.01,387.18725,572.19,228.72823,327.74-164.196,920.68005,44.22551,920.68005,44.22551"/>
      <path class="cls-10" d="M7.74951,276.70131c432.75524,18.14,1264.74733,93.20566,1462.50334,237.40067,323.822,236.138,412.082-413.048,567.202-252.263,181.93,188.693,243.15,408.11819,557.85,247.17923,327.73-167.607,909.13,28.56453,909.13,28.56453"/>
      <path class="cls-11" d="M7.19091,306.00532C449.62975,337.3253,1294.65584,353.627,1488.50182,499.993c327.174,246.991,416.373-393.977,572.603-234.588,181.37,184.817,230.29993,429.05023,543.7,265.47418,327.73-171.173,897.76989,12.90657,897.76989,12.90657"/>
      <path class="cls-12" d="M6.44482,335.46431c452.12191,44.499,1309.996,2.19367,1500.118,150.57468,330.34,258,420.652-375.217,578.192-217.068,180.42993,181.096,217.44995,450.13718,529.53992,283.77017,327.74-174.584,886.41-2.75346,886.41-2.75346"/>
      <path class="cls-13" d="M5.88622,364.76832C467.69073,422.4463,1338.41383,321.533,1524.81181,471.774c333.503,269.163,424.93305-356.145,583.773-199.392,179.88,177.375,204.61,471.2232,515.4,302.22119,327.73-178.15,874.86-18.41447,874.86-18.41447"/>
      <path class="cls-14" d="M5.32958,394.22731C477.00374,465.2393,1360.38884,305.563,1543.06285,457.665c336.48194,280.327,429.22193-337.23,589.542-181.717,178.95,173.499,191.76,492.00021,501.05994,320.51718,327.55-181.716,863.51-34.07445,863.51-34.07445"/>
      <path class="cls-15" d="M4.58349,423.5323C485.94073,507.72331,1381.98882,289.593,1561.12383,443.555c339.28094,291.646,433.501-318.158,595.131-164.04,178.02,169.777,178.53992,512.46624,486.90991,338.81219,327.17-185.748,852.14-49.73448,852.14-49.73448"/>
      <path class="cls-16" d="M4.0249,452.99131c491.03985,97.37,1399.564-179.21334,1575.16191-23.54534,341.888,303.274,437.788-299.088,600.718-146.365,177.27,166.056,165.69006,533.55221,472.57007,357.10818,327.16992-189.314,840.6-65.23949,840.6-65.23949"/>
      <path class="cls-17" d="M3.2788,482.2953c500.72293,110.549,1421.723-224.48733,1593.96905-66.95831,344.117,314.747,441.877-280.172,606.30695-128.845,176.34008,162.335,152.65,554.48422,458.41,375.55819,327.17993-192.724,829.25-80.89848,829.25-80.89848"/>
      <path class="cls-18" d="M2.72021,511.75432C513.31273,635.48231,1446.60283,241.993,1615.49681,401.227c346.358,326.531,446.158-261.101,611.88806-111.169,175.40992,158.614,139.80994,575.57021,444.2699,393.85421,327.17-196.291,817.88-96.55845,817.88-96.55845"/>
      <path class="cls-19" d="M2.16162,541.21333C522.43676,678.27632,1468.20281,226.333,1633.74486,387.273c348.22,338.315,450.26-242.03,617.48-93.494,174.48,155.048,126.96,596.50222,429.91992,412.15023,327.18-199.857,806.53-112.21751,806.53-112.21751"/>
      <path class="cls-20" d="M1.41552,570.51729C531.37371,720.75831,1489.42986,210.363,1651.80681,373.008c349.888,350.254,454.358-222.959,623.068-75.818,173.54993,151.327,114.11,617.43319,415.7699,430.60018,326.99-203.268,794.98-127.87748,794.98-127.87748"/>
      <path class="cls-21" d="M.85888,599.97633c539.64087,163.265,1509.801-405.27336,1669.199-241.07736,351.377,362.192,458.267-203.578,628.837-58.143,172.42993,147.916,101.25989,638.52023,401.61988,448.8962,326.99-206.834,783.62-143.53746,783.62-143.53746"/>
      <path class="cls-22" d="M.11474,629.28029c549.51,176.6,1531.58807-450.3923,1688.0061-284.49033,352.684,374.286,462.734-184.663,634.42395-40.623s88.41,659.6072,387.28,467.34719c326.99-210.245,772.26-159.19749,772.26-159.19749"/>
    </g>
  </g>
</svg>
