<svg xmlns="http://www.w3.org/2000/svg" viewBox="0 0 683.12926 776.72925">
  <defs>
    <style>
      .cls-1, .cls-3, .cls-4 {
        fill: none;
        stroke: #0086e7;
        stroke-miterlimit: 10;
      }

      .cls-1 {
        stroke-width: 1.5px;
      }

      .cls-2 {
        fill: #0086e7;
      }

      .cls-4 {
        stroke-width: 0.5px;
      }
    </style>
  </defs>
  <title>Ресурс 1</title>
  <g id="Слой_2" data-name="Слой 2">
    <g id="object">
      <g>
        <g>
          <polyline class="cls-1" points="0.001 437.85 130.158 437.85 175.941 407.85 242.011 407.85 276.36 462.015 465.148 462.015 504.781 434.933 617.001 434.933"/>
          <circle class="cls-2" cx="616.71911" cy="434.93262" r="5.63965"/>
        </g>
        <g>
          <polyline class="cls-1" points="0.001 471.489 130.929 471.489 177.479 440.933 236.598 441.489 272.268 495.654 465.148 495.654 504.781 468.571 677.772 468.571"/>
          <circle class="cls-2" cx="677.48961" cy="468.57104" r="5.63965"/>
        </g>
        <g>
          <polyline class="cls-1" points="0.001 505.63 130.929 505.63 177.479 475.074 236.598 475.63 272.268 529.795 459.79 529.795"/>
          <circle class="cls-2" cx="459.50841" cy="529.79468" r="5.63965"/>
        </g>
        <g>
          <polyline class="cls-1" points="278.771 612.151 106.584 612.151 66.951 639.234 0.001 639.234"/>
          <path class="cls-2" d="M278.44634,605.66553a6.4856,6.4856,0,1,1-6.48554,6.48559A6.48633,6.48633,0,0,1,278.44634,605.66553Z"/>
        </g>
        <g>
          <polyline class="cls-1" points="0.001 609.763 66.951 609.763 106.584 582.681 284.932 582.681 310.962 556.651 400.433 556.651 425.105 581.323 514.161 581.323"/>
          <path class="cls-2" d="M513.83672,587.80908a6.4856,6.4856,0,1,0-6.48553-6.48559A6.48633,6.48633,0,0,0,513.83672,587.80908Z"/>
        </g>
        <g>
          <line class="cls-1" x1="0.00051" y1="523.40942" x2="206.46978" y2="523.40942"/>
          <path class="cls-2" d="M206.18779,529.04907a5.63965,5.63965,0,1,0-5.63958-5.63965A5.64022,5.64022,0,0,0,206.18779,529.04907Z"/>
        </g>
        <g>
          <polyline class="cls-1" points="345.721 731.255 173.534 731.255 133.901 704.173 0.001 704.173"/>
          <path class="cls-2" d="M345.39672,724.76953a6.4856,6.4856,0,1,1-6.48554,6.4856A6.48629,6.48629,0,0,1,345.39672,724.76953Z"/>
        </g>
        <g>
          <polyline class="cls-1" points="385.721 758.338 173.534 758.338 133.901 731.255 0.001 731.255"/>
          <path class="cls-2" d="M385.39672,751.85205a6.4856,6.4856,0,1,1-6.48554,6.4856A6.48629,6.48629,0,0,1,385.39672,751.85205Z"/>
        </g>
        <g>
          <path class="cls-1" d="M.00051,379.15479H250.8366l41.45184,61.13232"/>
          <path class="cls-2" d="M287.46245,443.219a5.6397,5.6397,0,1,0,1.50275-7.83276A5.64012,5.64012,0,0,0,287.46245,443.219Z"/>
        </g>
        <g>
          <polyline class="cls-1" points="0.001 356.988 272.565 356.988 328.122 443.648 422.818 443.648"/>
          <path class="cls-2" d="M422.53606,449.28809a5.63965,5.63965,0,1,0-5.63959-5.63965A5.64022,5.64022,0,0,0,422.53606,449.28809Z"/>
        </g>
        <g>
          <polyline class="cls-1" points="0.001 333.856 325.985 333.856 355.796 379.155 459.79 379.155"/>
          <circle class="cls-2" cx="459.50841" cy="379.15479" r="5.63965"/>
        </g>
        <g>
          <polyline class="cls-1" points="0.001 116.172 105.914 116.172 161.11 171.367 249.497 171.367 350.439 171.367"/>
          <path class="cls-2" d="M350.15667,177.00732a5.63977,5.63977,0,1,0-5.63959-5.63989A5.64042,5.64042,0,0,0,350.15667,177.00732Z"/>
        </g>
        <g>
          <polyline class="cls-1" points="0.001 147.289 105.914 147.289 161.11 202.485 249.497 202.485 316.213 202.485 353.013 239.285 506.047 239.285"/>
          <circle class="cls-2" cx="505.76531" cy="239.28516" r="5.63965"/>
        </g>
        <g>
          <polyline class="cls-1" points="0.001 174.887 96.886 174.887 150.695 228.696 234.531 228.696 292.433 228.696 340.223 276.486 468.399 280.812"/>
          <path class="cls-2" d="M467.92693,286.439a5.63968,5.63968,0,1,0-5.44611-5.82666A5.64035,5.64035,0,0,0,467.92693,286.439Z"/>
        </g>
        <g>
          <line class="cls-1" x1="0.00051" y1="201.79175" x2="80.32335" y2="201.79175"/>
          <path class="cls-2" d="M80.04137,207.4314a5.63965,5.63965,0,1,0-5.63959-5.63965A5.64022,5.64022,0,0,0,80.04137,207.4314Z"/>
        </g>
        <g>
          <line class="cls-1" x1="0.00051" y1="231.95532" x2="110.32335" y2="231.95532"/>
          <path class="cls-2" d="M110.04137,237.595a5.63965,5.63965,0,1,0-5.63959-5.63965A5.64022,5.64022,0,0,0,110.04137,237.595Z"/>
        </g>
        <g>
          <line class="cls-1" x1="0.00051" y1="404.46484" x2="110.32335" y2="404.46484"/>
          <path class="cls-2" d="M110.04137,410.10449a5.63965,5.63965,0,1,0-5.63959-5.63965A5.64022,5.64022,0,0,0,110.04137,410.10449Z"/>
        </g>
        <g>
          <line class="cls-1" x1="157.09179" y1="310.37817" x2="395.07494" y2="310.37817"/>
          <path class="cls-2" d="M394.793,316.01782a5.63965,5.63965,0,1,0-5.63959-5.63965A5.64022,5.64022,0,0,0,394.793,316.01782Z"/>
        </g>
        <g>
          <polyline class="cls-1" points="403.992 410.044 343.478 410.044 306.965 351.437"/>
          <path class="cls-2" d="M403.71038,404.40405a5.63965,5.63965,0,1,1-5.63959,5.63965A5.64022,5.64022,0,0,1,403.71038,404.40405Z"/>
        </g>
        <g>
          <polyline class="cls-1" points="0.001 313.015 115.309 313.015 147.332 280.993 287.075 280.993"/>
          <path class="cls-2" d="M286.7932,286.63232a5.63965,5.63965,0,1,0-5.63959-5.63964A5.64025,5.64025,0,0,0,286.7932,286.63232Z"/>
        </g>
        <g>
          <polyline class="cls-1" points="0.001 287.683 90.397 287.683 124.327 253.753 186.976 255.148"/>
          <path class="cls-2" d="M186.56865,260.77979a5.63971,5.63971,0,1,0-5.51263-5.76392A5.64057,5.64057,0,0,0,186.56865,260.77979Z"/>
        </g>
        <g>
          <line class="cls-1" x1="0.00051" y1="258.85034" x2="57.48308" y2="258.85034"/>
          <path class="cls-2" d="M57.2011,264.49a5.63965,5.63965,0,1,0-5.63959-5.63965A5.64022,5.64022,0,0,0,57.2011,264.49Z"/>
        </g>
        <g>
          <line class="cls-1" x1="0.00051" y1="576.66553" x2="57.48308" y2="576.66553"/>
          <path class="cls-2" d="M57.2011,582.30542a5.63977,5.63977,0,1,0-5.63959-5.63989A5.64042,5.64042,0,0,0,57.2011,582.30542Z"/>
        </g>
        <g>
          <line class="cls-1" x1="0.00051" y1="758.33765" x2="57.48308" y2="758.33765"/>
          <path class="cls-2" d="M57.2011,763.97729a5.63965,5.63965,0,1,0-5.63959-5.63964A5.64021,5.64021,0,0,0,57.2011,763.97729Z"/>
        </g>
        <g>
          <line class="cls-1" x1="201.15416" y1="670.59277" x2="258.63677" y2="670.59277"/>
          <path class="cls-2" d="M258.35479,676.23242a5.63965,5.63965,0,1,0-5.63959-5.63965A5.64022,5.64022,0,0,0,258.35479,676.23242Z"/>
        </g>
        <g>
          <line class="cls-1" x1="0.00051" y1="550.54517" x2="184.88085" y2="550.54517"/>
          <path class="cls-2" d="M184.59887,556.18481a5.63965,5.63965,0,1,0-5.63959-5.63964A5.64022,5.64022,0,0,0,184.59887,556.18481Z"/>
        </g>
        <g>
          <polyline class="cls-1" points="0.001 681.84 169.828 681.84 186.029 698.042 431.735 698.042"/>
          <path class="cls-2" d="M431.45348,703.68188a5.63965,5.63965,0,1,0-5.63959-5.63964A5.64021,5.64021,0,0,0,431.45348,703.68188Z"/>
        </g>
        <g>
          <polyline class="cls-1" points="0.001 663.345 115.681 663.345 146.217 643.234 323.24 643.234"/>
          <path class="cls-2" d="M322.9583,648.87329a5.63965,5.63965,0,1,0-5.63959-5.63965A5.64026,5.64026,0,0,0,322.9583,648.87329Z"/>
        </g>
        <g>
          <polyline class="cls-1" points="0.001 87.878 42.841 87.878 42.841 28.429 372.286 28.429"/>
          <path class="cls-2" d="M372.00408,34.06836a5.63965,5.63965,0,1,0-5.63959-5.63965A5.64022,5.64022,0,0,0,372.00408,34.06836Z"/>
        </g>
        <g>
          <polyline class="cls-1" points="0.001 51.218 15.993 51.218 15.993 5.64 142.29 5.64"/>
          <path class="cls-2" d="M142.00817,11.2793a5.63965,5.63965,0,1,0-5.63959-5.63965A5.64022,5.64022,0,0,0,142.00817,11.2793Z"/>
        </g>
        <g>
          <polyline class="cls-1" points="422.687 51.218 218.547 51.218 179.479 51.218 217.343 89.082 472.359 89.082"/>
          <path class="cls-2" d="M422.40477,45.57788a5.63977,5.63977,0,1,1-5.63958,5.63965A5.64022,5.64022,0,0,1,422.40477,45.57788Z"/>
          <path class="cls-2" d="M472.07726,94.72144a5.63965,5.63965,0,1,0-5.63959-5.63965A5.64022,5.64022,0,0,0,472.07726,94.72144Z"/>
        </g>
        <g>
          <polyline class="cls-1" points="407.956 145.683 177.566 145.683 115.681 83.798 73.824 81.878 73.824 51.218 126.965 51.218 192.126 116.378 336.207 116.378"/>
          <path class="cls-2" d="M407.6737,140.04321a5.63965,5.63965,0,1,1-5.63959,5.63965A5.64021,5.64021,0,0,1,407.6737,140.04321Z"/>
          <path class="cls-2" d="M335.92516,122.01807a5.63965,5.63965,0,1,0-5.63959-5.63965A5.64022,5.64022,0,0,0,335.92516,122.01807Z"/>
        </g>
      </g>
      <g>
        <polyline class="cls-3" points="0.001 69.15 28.421 69.15 28.421 16.53 215.54 16.53"/>
        <path class="cls-2" d="M215.35216,20.28931a3.75977,3.75977,0,1,0-3.7597-3.75977A3.76016,3.76016,0,0,0,215.35216,20.28931Z"/>
      </g>
      <g>
        <polyline class="cls-3" points="0.001 538.044 214.088 538.044 234.065 558.02 278.953 558.02"/>
        <path class="cls-2" d="M278.76488,561.77979a3.75977,3.75977,0,1,0-3.7597-3.75977A3.76016,3.76016,0,0,0,278.76488,561.77979Z"/>
      </g>
      <g>
        <polyline class="cls-3" points="0.001 625.692 65.424 625.692 105.914 596.941 310.659 596.941"/>
        <circle class="cls-2" cx="310.4713" cy="596.94141" r="3.75977"/>
      </g>
      <g>
        <polyline class="cls-3" points="0.001 649.289 92.996 649.195 116.34 630.854"/>
        <path class="cls-2" d="M118.51506,633.927a3.75979,3.75979,0,1,0-5.27917-.63379A3.76025,3.76025,0,0,0,118.51506,633.927Z"/>
      </g>
      <g>
        <line class="cls-3" x1="0.00051" y1="717.71387" x2="102.34215" y2="717.71387"/>
        <path class="cls-2" d="M102.15416,721.47363a3.75977,3.75977,0,1,0-3.7597-3.75976A3.76014,3.76014,0,0,0,102.15416,721.47363Z"/>
      </g>
      <g>
        <line class="cls-3" x1="0.00051" y1="488.92847" x2="102.34215" y2="488.92847"/>
        <path class="cls-2" d="M102.15416,492.68823a3.75989,3.75989,0,1,0-3.7597-3.75976A3.76014,3.76014,0,0,0,102.15416,492.68823Z"/>
      </g>
      <g>
        <polyline class="cls-4" points="0.001 774.849 75.993 774.849 90.085 758.338 124.874 758.338 137.204 774.849 239.344 774.849"/>
        <circle class="cls-2" cx="239.25042" cy="774.84937" r="1.87988"/>
      </g>
      <g>
        <line class="cls-3" x1="0.00051" y1="744.79639" x2="89.59551" y2="744.79639"/>
        <circle class="cls-2" cx="89.40752" cy="744.79639" r="3.75977"/>
      </g>
      <g>
        <line class="cls-4" x1="0.00051" y1="594.61621" x2="51.17138" y2="594.61621"/>
        <path class="cls-2" d="M51.07738,596.49609a1.87988,1.87988,0,1,0-1.87985-1.87988A1.88007,1.88007,0,0,0,51.07738,596.49609Z"/>
      </g>
      <g>
        <polyline class="cls-3" points="3.773 454.968 127.295 454.968 175.941 423.456 202.99 423.456"/>
        <path class="cls-2" d="M202.80181,427.21533a3.75989,3.75989,0,1,0-3.75977-3.75976A3.76013,3.76013,0,0,0,202.80181,427.21533Z"/>
      </g>
      <g>
        <polyline class="cls-3" points="0.001 423.456 122.011 423.456 139.209 406.258"/>
        <path class="cls-2" d="M141.73418,409.0498a3.75978,3.75978,0,1,0-5.31708-.00024A3.76015,3.76015,0,0,0,141.73418,409.0498Z"/>
      </g>
    </g>
  </g>
</svg>
