<?xml version="1.0" encoding="utf-8"?>
<!-- Generator: Adobe Illustrator 24.0.2, SVG Export Plug-In . SVG Version: 6.00 Build 0)  -->
<svg version="1.1" id="Layer_1" xmlns="http://www.w3.org/2000/svg" xmlns:xlink="http://www.w3.org/1999/xlink" x="0px" y="0px"
	 viewBox="0 0 432 288" style="enable-background:new 0 0 432 288;" xml:space="preserve">
<style type="text/css">
	.st0{fill:#0086E7;}
</style>
<g>
	<g>
		<g>
			<polygon class="st0" points="177.5,97.3 135.3,97.3 117.5,79.5 86.1,79.5 61.5,54.9 61.7,54.8 86.3,79.3 117.6,79.3 135.4,97.1 
				177.5,97.1 			"/>
		</g>
		<g>
			<path class="st0" d="M177.4,96.2c0.6,0,1,0.5,1,1c0,0.6-0.5,1-1,1c-0.6,0-1-0.5-1-1C176.4,96.6,176.9,96.2,177.4,96.2z"/>
		</g>
		<g>
			<path class="st0" d="M62.4,54.1c-0.4-0.4-1.1-0.4-1.5,0c-0.4,0.4-0.4,1.1,0,1.5c0.4,0.4,1.1,0.4,1.5,0
				C62.8,55.2,62.8,54.6,62.4,54.1z"/>
		</g>
	</g>
	<g>
		<g>
			<polygon class="st0" points="47.1,231.2 18.6,231.2 18.6,230.9 47,230.9 62.7,215.2 94.1,215.2 111.9,197.5 155,197.5 
				170.9,181.6 171.1,181.8 155.1,197.7 112,197.7 94.2,215.5 62.8,215.5 			"/>
		</g>
		<g>
			<path class="st0" d="M170.2,181c0.4-0.4,1.1-0.4,1.5,0c0.4,0.4,0.4,1.1,0,1.5c-0.4,0.4-1.1,0.4-1.5,0
				C169.8,182,169.8,181.4,170.2,181z"/>
		</g>
		<g>
			<circle class="st0" cx="18.7" cy="231.1" r="1"/>
		</g>
	</g>
	<g>
		<g>
			<polygon class="st0" points="190.4,118.2 176,103.8 126.7,103.8 111.9,89 92,89 84.1,97 24,97 24,96.7 84,96.7 91.9,88.7 
				112,88.7 126.8,103.5 176.2,103.5 190.6,118 			"/>
		</g>
		<g>
			<circle class="st0" cx="190.5" cy="118" r="1"/>
		</g>
		<g>
			<circle class="st0" cx="24" cy="96.8" r="1"/>
		</g>
	</g>
	<g>
		<g>
			<polygon class="st0" points="151.1,193.9 134.4,193.9 122.1,181.5 97.9,181.5 85.8,169.5 49.8,169.5 49.8,169.2 86,169.2 
				98,181.3 122.2,181.3 134.5,193.6 151,193.6 168,176.6 168.1,176.8 			"/>
		</g>
		<g>
			<path class="st0" d="M167.3,176c0.4-0.4,1.1-0.4,1.5,0c0.4,0.4,0.4,1.1,0,1.5c-0.4,0.4-1.1,0.4-1.5,0
				C166.9,177.1,166.9,176.4,167.3,176z"/>
		</g>
		<g>
			<circle class="st0" cx="49.8" cy="169.4" r="1"/>
		</g>
	</g>
	<g>
		<g>
			<polygon class="st0" points="188.6,124.9 174.6,110.9 127.6,110.9 111.8,95.2 97.4,95.2 85.9,106.7 40.6,106.7 40.6,106.4 
				85.8,106.4 97.3,94.9 111.9,94.9 127.7,110.6 174.7,110.6 188.8,124.7 			"/>
		</g>
		<g>
			<path class="st0" d="M40.7,107.6c-0.6,0-1-0.5-1-1c0-0.6,0.5-1,1-1s1,0.5,1,1C41.7,107.1,41.3,107.6,40.7,107.6z"/>
		</g>
		<g>
			<path class="st0" d="M187.9,125.5c0.4,0.4,1.1,0.4,1.5,0c0.4-0.4,0.4-1.1,0-1.5s-1.1-0.4-1.5,0
				C187.5,124.5,187.5,125.1,187.9,125.5z"/>
		</g>
	</g>
	<g>
		<g>
			<polygon class="st0" points="149,180.1 128.5,180.1 104.9,156.4 56,156.4 44.3,168.2 44.1,168 55.9,156.2 105,156.2 128.7,179.8 
				148.9,179.8 160.5,168.2 181.4,168.2 181.4,168.5 160.6,168.5 			"/>
		</g>
		<g>
			<path class="st0" d="M181.4,167.3c0.6,0,1,0.5,1,1c0,0.6-0.5,1-1,1c-0.6,0-1-0.5-1-1C180.3,167.8,180.8,167.3,181.4,167.3z"/>
		</g>
		<g>
			<path class="st0" d="M43.5,167.4c-0.4,0.4-0.4,1.1,0,1.5c0.4,0.4,1.1,0.4,1.5,0c0.4-0.4,0.4-1.1,0-1.5
				C44.5,166.9,43.9,166.9,43.5,167.4z"/>
		</g>
	</g>
	<g>
		<g>
			<polygon class="st0" points="153.5,185 142.2,185 142.2,184.7 153.4,184.7 166.2,171.9 166.4,172.1 			"/>
		</g>
		<g>
			<path class="st0" d="M165.5,171.3c0.4-0.4,1.1-0.4,1.5,0c0.4,0.4,0.4,1.1,0,1.5c-0.4,0.4-1.1,0.4-1.5,0
				C165.1,172.4,165.1,171.7,165.5,171.3z"/>
		</g>
		<g>
			<circle class="st0" cx="142.3" cy="184.8" r="1"/>
		</g>
	</g>
	<g>
		<g>
			<polygon class="st0" points="188.6,133.3 173.6,118.2 131.2,118.2 117,104 93.4,104 81.1,116.3 30.1,116.3 15.1,101.2 15.2,101 
				30.2,116 81,116 93.3,103.7 117.1,103.7 131.3,117.9 173.7,117.9 188.8,133.1 			"/>
		</g>
		<g>
			<path class="st0" d="M189.4,132.4c0.4,0.4,0.4,1.1,0,1.5c-0.4,0.4-1.1,0.4-1.5,0c-0.4-0.4-0.4-1.1,0-1.5
				C188.3,132,189,132,189.4,132.4z"/>
		</g>
		<g>
			<path class="st0" d="M15.9,100.4c-0.4-0.4-1.1-0.4-1.5,0c-0.4,0.4-0.4,1.1,0,1.5c0.4,0.4,1.1,0.4,1.5,0
				C16.3,101.5,16.3,100.8,15.9,100.4z"/>
		</g>
	</g>
	<g>
		<g>
			<polygon class="st0" points="182.3,136.2 170.1,124 132.1,124 117.2,109.1 94.3,109.1 75.6,127.8 75.4,127.6 94.2,108.9 
				117.3,108.9 132.2,123.7 170.2,123.7 182.5,136 			"/>
		</g>
		<g>
			<path class="st0" d="M183.1,135.3c0.4,0.4,0.4,1.1,0,1.5c-0.4,0.4-1.1,0.4-1.5,0c-0.4-0.4-0.4-1.1,0-1.5
				C182,134.9,182.7,134.9,183.1,135.3z"/>
		</g>
		<g>
			<circle class="st0" cx="75.5" cy="127.7" r="1"/>
		</g>
	</g>
	<g>
		<g>
			<polygon class="st0" points="141,173 126.7,173 99.6,145.9 27.7,145.9 27.7,145.6 99.7,145.6 126.9,172.7 140.9,172.7 151,162.6 
				178.5,162.6 190.4,150.7 190.6,150.9 178.6,162.9 151.1,162.9 			"/>
		</g>
		<g>
			<path class="st0" d="M189.7,150.1c0.4-0.4,1.1-0.4,1.5,0c0.4,0.4,0.4,1.1,0,1.5c-0.4,0.4-1.1,0.4-1.5,0
				C189.3,151.2,189.3,150.5,189.7,150.1z"/>
		</g>
		<g>
			<path class="st0" d="M27.7,144.7c-0.6,0-1,0.5-1,1c0,0.6,0.5,1,1,1c0.6,0,1-0.5,1-1C28.8,145.2,28.3,144.7,27.7,144.7z"/>
		</g>
	</g>
	<g>
		<g>
			<polygon class="st0" points="127.4,140.5 117.8,140.5 117.8,140.3 127.3,140.3 136.1,131.5 169,131.5 169,131.7 136.2,131.7 			
				"/>
		</g>
		<g>
			<path class="st0" d="M169,130.6c0.6,0,1,0.5,1,1c0,0.6-0.5,1-1,1c-0.6,0-1-0.5-1-1C167.9,131,168.4,130.6,169,130.6z"/>
		</g>
		<g>
			<circle class="st0" cx="117.8" cy="140.4" r="1"/>
		</g>
	</g>
	<g>
		<g>
			<polygon class="st0" points="126.8,131.9 113.3,118.4 93.9,118.4 93.9,118.2 113.5,118.2 127,131.7 			"/>
		</g>
		<g>
			<path class="st0" d="M127.6,131c0.4,0.4,0.4,1.1,0,1.5c-0.4,0.4-1.1,0.4-1.5,0c-0.4-0.4-0.4-1.1,0-1.5
				C126.5,130.6,127.2,130.6,127.6,131z"/>
		</g>
		<g>
			<path class="st0" d="M93.9,117.3c-0.6,0-1,0.5-1,1c0,0.6,0.5,1,1,1s1-0.5,1-1C95,117.7,94.5,117.3,93.9,117.3z"/>
		</g>
	</g>
	<g>
		<g>
			<polygon class="st0" points="117.8,133.3 108.4,123.9 91.2,123.9 91.2,123.6 108.5,123.6 118,133.1 			"/>
		</g>
		<g>
			<circle class="st0" cx="117.9" cy="133.1" r="1"/>
		</g>
		<g>
			<circle class="st0" cx="91.2" cy="123.7" r="1"/>
		</g>
	</g>
	<g>
		<g>
			<rect x="28.6" y="172.6" class="st0" width="12" height="0.3"/>
		</g>
		<g>
			<circle class="st0" cx="40.5" cy="172.8" r="1"/>
		</g>
		<g>
			<path class="st0" d="M28.6,171.7c-0.6,0-1,0.5-1,1c0,0.6,0.5,1,1,1c0.6,0,1-0.5,1-1C29.7,172.2,29.2,171.7,28.6,171.7z"/>
		</g>
	</g>
	<g>
		<g>
			<polygon class="st0" points="111.1,174.4 99,162.3 60.1,162.3 60.1,162 99.1,162 111.3,174.2 			"/>
		</g>
		<g>
			<path class="st0" d="M111.9,173.6c0.4,0.4,0.4,1.1,0,1.5c-0.4,0.4-1.1,0.4-1.5,0c-0.4-0.4-0.4-1.1,0-1.5
				C110.8,173.2,111.5,173.2,111.9,173.6z"/>
		</g>
		<g>
			<circle class="st0" cx="60.2" cy="162.2" r="1"/>
		</g>
	</g>
	<g>
		<g>
			<polygon class="st0" points="47.2,224.1 20.9,224.1 20.9,223.8 47.1,223.8 67.2,203.8 90.2,203.8 103.3,190.7 128.1,190.7 
				128.1,191 103.4,191 90.3,204 67.3,204 			"/>
		</g>
		<g>
			<circle class="st0" cx="128" cy="190.8" r="1"/>
		</g>
		<g>
			<path class="st0" d="M20.9,222.9c-0.6,0-1,0.5-1,1c0,0.6,0.5,1,1,1c0.6,0,1-0.5,1-1C22,223.4,21.5,222.9,20.9,222.9z"/>
		</g>
	</g>
	<g>
		<g>
			<polygon class="st0" points="19.8,193.4 19.6,193.2 35.2,177.6 81.8,177.6 90.8,186.6 119,186.6 119,186.9 90.7,186.9 
				81.6,177.9 35.3,177.9 			"/>
		</g>
		<g>
			<circle class="st0" cx="119" cy="186.8" r="1"/>
		</g>
		<g>
			<path class="st0" d="M19,192.5c-0.4,0.4-0.4,1.1,0,1.5c0.4,0.4,1.1,0.4,1.5,0c0.4-0.4,0.4-1.1,0-1.5
				C20.1,192.1,19.4,192.1,19,192.5z"/>
		</g>
	</g>
	<g>
		<g>
			<polygon class="st0" points="45.7,210.4 23.9,210.4 16.2,202.7 16.4,202.5 24,210.1 45.6,210.1 61.8,193.8 88.4,193.8 
				88.4,194.1 61.9,194.1 			"/>
		</g>
		<g>
			<path class="st0" d="M88.3,192.9c0.6,0,1,0.5,1,1c0,0.6-0.5,1-1,1c-0.6,0-1-0.5-1-1C87.3,193.4,87.7,192.9,88.3,192.9z"/>
		</g>
		<g>
			<path class="st0" d="M17.1,201.9c-0.4-0.4-1.1-0.4-1.5,0c-0.4,0.4-0.4,1.1,0,1.5c0.4,0.4,1.1,0.4,1.5,0
				C17.5,202.9,17.5,202.3,17.1,201.9z"/>
		</g>
	</g>
	<g>
		<g>
			<polygon class="st0" points="39.6,199.8 28.6,199.8 28.6,199.5 39.5,199.5 51.9,187.1 79.3,187.1 79.3,187.4 52,187.4 			"/>
		</g>
		<g>
			<path class="st0" d="M79.3,186.2c0.6,0,1,0.5,1,1c0,0.6-0.5,1-1,1c-0.6,0-1-0.5-1-1C78.3,186.6,78.7,186.2,79.3,186.2z"/>
		</g>
		<g>
			<circle class="st0" cx="28.6" cy="199.6" r="1"/>
		</g>
	</g>
	<g>
		<g>
			<polygon class="st0" points="17.1,173.1 16.9,172.9 37,152.8 89.7,152.8 89.7,153.1 37.1,153.1 			"/>
		</g>
		<g>
			<path class="st0" d="M89.7,151.9c0.6,0,1,0.5,1,1c0,0.6-0.5,1-1,1c-0.6,0-1-0.5-1-1C88.6,152.4,89.1,151.9,89.7,151.9z"/>
		</g>
		<g>
			<path class="st0" d="M16.3,172.2c-0.4,0.4-0.4,1.1,0,1.5c0.4,0.4,1.1,0.4,1.5,0c0.4-0.4,0.4-1.1,0-1.5
				C17.4,171.8,16.7,171.8,16.3,172.2z"/>
		</g>
	</g>
	<g>
		<g>
			<polygon class="st0" points="132.9,164.1 124.5,164.1 99.8,139.4 23.1,139.4 23.1,139.2 99.9,139.2 124.6,163.8 132.8,163.8 
				142.5,154.1 169.1,154.1 177,146.3 177.2,146.5 169.3,154.4 142.6,154.4 			"/>
		</g>
		<g>
			<path class="st0" d="M176.3,145.7c0.4-0.4,1.1-0.4,1.5,0c0.4,0.4,0.4,1.1,0,1.5c-0.4,0.4-1.1,0.4-1.5,0
				C175.9,146.8,175.9,146.1,176.3,145.7z"/>
		</g>
		<g>
			<circle class="st0" cx="23.2" cy="139.3" r="1"/>
		</g>
	</g>
	<g>
		<g>
			<polygon class="st0" points="132.2,156.6 123.1,156.6 99.3,132.7 19.1,132.7 19.1,132.4 99.4,132.4 123.2,156.3 132,156.3 
				138.9,149.4 167.1,149.4 174.3,142.3 174.5,142.5 167.2,149.7 139,149.7 			"/>
		</g>
		<g>
			<path class="st0" d="M173.6,141.7c0.4-0.4,1.1-0.4,1.5,0c0.4,0.4,0.4,1.1,0,1.5c-0.4,0.4-1.1,0.4-1.5,0
				C173.2,142.7,173.2,142.1,173.6,141.7z"/>
		</g>
		<g>
			<path class="st0" d="M19.1,131.5c-0.6,0-1,0.5-1,1c0,0.6,0.5,1,1,1c0.6,0,1-0.5,1-1C20.2,132,19.7,131.5,19.1,131.5z"/>
		</g>
	</g>
	<g>
		<g>
			<polygon class="st0" points="131.7,146.9 131.5,146.7 140.7,137.5 169.6,137.5 169.6,137.7 140.8,137.7 			"/>
		</g>
		<g>
			<path class="st0" d="M169.5,136.6c0.6,0,1,0.5,1,1c0,0.6-0.5,1-1,1c-0.6,0-1-0.5-1-1C168.5,137,168.9,136.6,169.5,136.6z"/>
		</g>
		<g>
			<circle class="st0" cx="131.6" cy="146.8" r="1"/>
		</g>
	</g>
	<g>
		<g>
			<polygon class="st0" points="107.8,85.4 79.4,85.4 57.7,63.7 57.9,63.5 79.5,85.1 107.8,85.1 			"/>
		</g>
		<g>
			<path class="st0" d="M107.7,84.2c0.6,0,1,0.5,1,1c0,0.6-0.5,1-1,1c-0.6,0-1-0.5-1-1C106.7,84.7,107.1,84.2,107.7,84.2z"/>
		</g>
		<g>
			<path class="st0" d="M58.6,62.9c-0.4-0.4-1.1-0.4-1.5,0s-0.4,1.1,0,1.5s1.1,0.4,1.5,0C59,64,59,63.4,58.6,62.9z"/>
		</g>
	</g>
	<g>
		<g>
			<polygon class="st0" points="69.7,85.7 55.8,71.8 17.4,71.8 17.4,71.5 55.9,71.5 69.9,85.5 			"/>
		</g>
		<g>
			<path class="st0" d="M70.5,84.8c0.4,0.4,0.4,1.1,0,1.5c-0.4,0.4-1.1,0.4-1.5,0s-0.4-1.1,0-1.5S70.1,84.4,70.5,84.8z"/>
		</g>
		<g>
			<path class="st0" d="M17.4,70.6c-0.6,0-1,0.5-1,1s0.5,1,1,1c0.6,0,1-0.5,1-1S18,70.6,17.4,70.6z"/>
		</g>
	</g>
</g>
<g>
	<g>
		<g>
			<polygon class="st0" points="249.5,188.6 291.7,188.6 309.5,206.4 340.9,206.4 365.5,231 365.3,231.2 340.7,206.7 309.4,206.7 
				291.6,188.9 249.5,188.9 			"/>
		</g>
		<g>
			<path class="st0" d="M249.6,189.8c-0.6,0-1-0.5-1-1c0-0.6,0.5-1,1-1c0.6,0,1,0.5,1,1C250.6,189.3,250.1,189.8,249.6,189.8z"/>
		</g>
		<g>
			<path class="st0" d="M364.6,231.8c0.4,0.4,1.1,0.4,1.5,0c0.4-0.4,0.4-1.1,0-1.5c-0.4-0.4-1.1-0.4-1.5,0
				C364.2,230.7,364.2,231.4,364.6,231.8z"/>
		</g>
	</g>
	<g>
		<g>
			<polygon class="st0" points="379.9,54.7 408.4,54.7 408.4,55 380,55 364.3,70.7 332.9,70.7 315.2,88.5 272,88.5 256.1,104.4 
				255.9,104.2 271.9,88.2 315,88.2 332.8,70.4 364.2,70.4 			"/>
		</g>
		<g>
			<path class="st0" d="M256.8,105c-0.4,0.4-1.1,0.4-1.5,0s-0.4-1.1,0-1.5s1.1-0.4,1.5,0C257.2,103.9,257.2,104.6,256.8,105z"/>
		</g>
		<g>
			<path class="st0" d="M408.3,55.9c0.6,0,1-0.5,1-1c0-0.6-0.5-1-1-1c-0.6,0-1,0.5-1,1C407.3,55.5,407.7,55.9,408.3,55.9z"/>
		</g>
	</g>
	<g>
		<g>
			<polygon class="st0" points="236.6,167.8 251,182.2 300.4,182.2 315.1,196.9 335,196.9 342.9,189 403.1,189 403.1,189.3 
				343,189.3 335.1,197.2 315,197.2 300.2,182.4 250.9,182.4 236.4,168 			"/>
		</g>
		<g>
			<path class="st0" d="M235.8,168.7c-0.4-0.4-0.4-1.1,0-1.5c0.4-0.4,1.1-0.4,1.5,0c0.4,0.4,0.4,1.1,0,1.5
				C236.9,169.1,236.2,169.1,235.8,168.7z"/>
		</g>
		<g>
			<path class="st0" d="M403,190.2c0.6,0,1-0.5,1-1c0-0.6-0.5-1-1-1c-0.6,0-1,0.5-1,1C402,189.7,402.4,190.2,403,190.2z"/>
		</g>
	</g>
	<g>
		<g>
			<polygon class="st0" points="275.9,92.1 292.6,92.1 304.9,104.4 329.1,104.4 341.2,116.5 377.3,116.5 377.3,116.7 341.1,116.7 
				329,104.7 304.8,104.7 292.5,92.4 276,92.4 259.1,109.3 258.9,109.1 			"/>
		</g>
		<g>
			<path class="st0" d="M259.7,109.9c-0.4,0.4-1.1,0.4-1.5,0c-0.4-0.4-0.4-1.1,0-1.5c0.4-0.4,1.1-0.4,1.5,0
				C260.1,108.9,260.1,109.5,259.7,109.9z"/>
		</g>
		<g>
			<circle class="st0" cx="377.2" cy="116.6" r="1"/>
		</g>
	</g>
	<g>
		<g>
			<polygon class="st0" points="238.4,161 252.4,175.1 299.5,175.1 315.2,190.8 329.6,190.8 341.1,179.3 386.4,179.3 386.4,179.6 
				341.2,179.6 329.7,191.1 315.1,191.1 299.3,175.4 252.3,175.4 238.2,161.2 			"/>
		</g>
		<g>
			<path class="st0" d="M386.3,178.4c0.6,0,1,0.5,1,1c0,0.6-0.5,1-1,1c-0.6,0-1-0.5-1-1C385.3,178.8,385.7,178.4,386.3,178.4z"/>
		</g>
		<g>
			<path class="st0" d="M239.1,160.4c-0.4-0.4-1.1-0.4-1.5,0c-0.4,0.4-0.4,1.1,0,1.5c0.4,0.4,1.1,0.4,1.5,0
				C239.5,161.5,239.5,160.8,239.1,160.4z"/>
		</g>
	</g>
	<g>
		<g>
			<polygon class="st0" points="278,105.8 298.5,105.8 322.1,129.5 371,129.5 382.7,117.7 382.9,117.9 371.1,129.8 322,129.8 
				298.3,106.1 278.1,106.1 266.5,117.7 245.6,117.7 245.6,117.5 266.4,117.5 			"/>
		</g>
		<g>
			<path class="st0" d="M245.6,118.6c-0.6,0-1-0.5-1-1c0-0.6,0.5-1,1-1c0.6,0,1,0.5,1,1C246.7,118.2,246.2,118.6,245.6,118.6z"/>
		</g>
		<g>
			<path class="st0" d="M383.5,118.6c0.4-0.4,0.4-1.1,0-1.5c-0.4-0.4-1.1-0.4-1.5,0c-0.4,0.4-0.4,1.1,0,1.5
				C382.5,119,383.1,119,383.5,118.6z"/>
		</g>
	</g>
	<g>
		<g>
			<polygon class="st0" points="273.5,101 284.8,101 284.8,101.3 273.6,101.3 260.8,114.1 260.6,113.9 			"/>
		</g>
		<g>
			<path class="st0" d="M261.5,114.7c-0.4,0.4-1.1,0.4-1.5,0c-0.4-0.4-0.4-1.1,0-1.5c0.4-0.4,1.1-0.4,1.5,0
				C261.9,113.6,261.9,114.3,261.5,114.7z"/>
		</g>
		<g>
			<path class="st0" d="M284.7,102.2c0.6,0,1-0.5,1-1c0-0.6-0.5-1-1-1c-0.6,0-1,0.5-1,1C283.7,101.7,284.1,102.2,284.7,102.2z"/>
		</g>
	</g>
	<g>
		<g>
			<polygon class="st0" points="238.4,152.7 253.4,167.7 295.8,167.7 310.1,182 333.6,182 345.9,169.7 396.9,169.7 412,184.7 
				411.8,184.9 396.8,169.9 346,169.9 333.7,182.2 309.9,182.2 295.7,168 253.3,168 238.2,152.9 			"/>
		</g>
		<g>
			<path class="st0" d="M237.6,153.6c-0.4-0.4-0.4-1.1,0-1.5c0.4-0.4,1.1-0.4,1.5,0c0.4,0.4,0.4,1.1,0,1.5
				C238.7,154,238,154,237.6,153.6z"/>
		</g>
		<g>
			<path class="st0" d="M411.1,185.5c0.4,0.4,1.1,0.4,1.5,0c0.4-0.4,0.4-1.1,0-1.5c-0.4-0.4-1.1-0.4-1.5,0
				C410.7,184.5,410.7,185.1,411.1,185.5z"/>
		</g>
	</g>
	<g>
		<g>
			<polygon class="st0" points="244.7,149.8 256.9,162 294.9,162 309.8,176.8 332.7,176.8 351.4,158.1 351.6,158.3 332.8,177.1 
				309.7,177.1 294.8,162.3 256.8,162.3 244.5,150 			"/>
		</g>
		<g>
			<path class="st0" d="M243.9,150.6c-0.4-0.4-0.4-1.1,0-1.5c0.4-0.4,1.1-0.4,1.5,0c0.4,0.4,0.4,1.1,0,1.5
				C245,151,244.3,151,243.9,150.6z"/>
		</g>
		<g>
			<path class="st0" d="M352.2,159c0.4-0.4,0.4-1.1,0-1.5c-0.4-0.4-1.1-0.4-1.5,0c-0.4,0.4-0.4,1.1,0,1.5
				C351.1,159.4,351.8,159.4,352.2,159z"/>
		</g>
	</g>
	<g>
		<g>
			<polygon class="st0" points="286,112.9 300.3,112.9 327.4,140.1 399.4,140.1 399.4,140.3 327.3,140.3 300.2,113.2 286.2,113.2 
				276,123.4 248.5,123.4 236.6,135.3 236.4,135.1 248.4,123.1 275.9,123.1 			"/>
		</g>
		<g>
			<path class="st0" d="M237.3,135.9c-0.4,0.4-1.1,0.4-1.5,0c-0.4-0.4-0.4-1.1,0-1.5c0.4-0.4,1.1-0.4,1.5,0
				C237.7,134.8,237.7,135.5,237.3,135.9z"/>
		</g>
		<g>
			<path class="st0" d="M399.3,141.2c0.6,0,1-0.5,1-1c0-0.6-0.5-1-1-1c-0.6,0-1,0.5-1,1C398.3,140.8,398.7,141.2,399.3,141.2z"/>
		</g>
	</g>
	<g>
		<g>
			<polygon class="st0" points="299.6,145.4 309.2,145.4 309.2,145.7 299.7,145.7 290.9,154.5 258,154.5 258,154.2 290.8,154.2 			
				"/>
		</g>
		<g>
			<circle class="st0" cx="258" cy="154.4" r="1"/>
		</g>
		<g>
			<circle class="st0" cx="309.2" cy="145.6" r="1"/>
		</g>
	</g>
	<g>
		<g>
			<polygon class="st0" points="300.2,154.1 313.7,167.5 333.1,167.5 333.1,167.8 313.6,167.8 300,154.2 			"/>
		</g>
		<g>
			<path class="st0" d="M299.4,154.9c-0.4-0.4-0.4-1.1,0-1.5c0.4-0.4,1.1-0.4,1.5,0c0.4,0.4,0.4,1.1,0,1.5
				C300.5,155.3,299.8,155.3,299.4,154.9z"/>
		</g>
		<g>
			<path class="st0" d="M333.1,168.7c0.6,0,1-0.5,1-1c0-0.6-0.5-1-1-1c-0.6,0-1,0.5-1,1C332,168.2,332.5,168.7,333.1,168.7z"/>
		</g>
	</g>
	<g>
		<g>
			<polygon class="st0" points="309.2,152.7 318.6,162.1 335.8,162.1 335.8,162.4 318.5,162.4 309,152.9 			"/>
		</g>
		<g>
			<circle class="st0" cx="309.2" cy="152.8" r="1"/>
		</g>
		<g>
			<path class="st0" d="M335.8,163.3c0.6,0,1-0.5,1-1c0-0.6-0.5-1-1-1c-0.6,0-1,0.5-1,1C334.8,162.8,335.2,163.3,335.8,163.3z"/>
		</g>
	</g>
	<g>
		<g>
			<rect x="386.5" y="113" class="st0" width="12" height="0.3"/>
		</g>
		<g>
			<path class="st0" d="M386.5,114.2c-0.6,0-1-0.5-1-1c0-0.6,0.5-1,1-1c0.6,0,1,0.5,1,1C387.5,113.8,387.1,114.2,386.5,114.2z"/>
		</g>
		<g>
			<path class="st0" d="M398.4,114.2c0.6,0,1-0.5,1-1c0-0.6-0.5-1-1-1c-0.6,0-1,0.5-1,1C397.4,113.8,397.8,114.2,398.4,114.2z"/>
		</g>
	</g>
	<g>
		<g>
			<polygon class="st0" points="315.9,111.5 328,123.6 366.9,123.6 366.9,123.9 327.9,123.9 315.7,111.7 			"/>
		</g>
		<g>
			<path class="st0" d="M315.1,112.4c-0.4-0.4-0.4-1.1,0-1.5c0.4-0.4,1.1-0.4,1.5,0c0.4,0.4,0.4,1.1,0,1.5
				C316.2,112.8,315.5,112.8,315.1,112.4z"/>
		</g>
		<g>
			<circle class="st0" cx="366.8" cy="123.8" r="1"/>
		</g>
	</g>
	<g>
		<g>
			<polygon class="st0" points="379.8,61.8 406.1,61.8 406.1,62.1 379.9,62.1 359.8,82.2 336.8,82.2 323.7,95.3 298.9,95.3 
				298.9,95 323.6,95 336.7,81.9 359.7,81.9 			"/>
		</g>
		<g>
			<path class="st0" d="M299,96.2c-0.6,0-1-0.5-1-1c0-0.6,0.5-1,1-1c0.6,0,1,0.5,1,1C300,95.7,299.6,96.2,299,96.2z"/>
		</g>
		<g>
			<path class="st0" d="M406.1,63c0.6,0,1-0.5,1-1c0-0.6-0.5-1-1-1s-1,0.5-1,1C405,62.6,405.5,63,406.1,63z"/>
		</g>
	</g>
	<g>
		<g>
			<polygon class="st0" points="407.2,92.6 407.4,92.8 391.8,108.4 345.3,108.4 336.2,99.3 308,99.3 308,99.1 336.4,99.1 
				345.4,108.1 391.7,108.1 			"/>
		</g>
		<g>
			<path class="st0" d="M308,100.2c-0.6,0-1-0.5-1-1c0-0.6,0.5-1,1-1c0.6,0,1,0.5,1,1C309.1,99.8,308.6,100.2,308,100.2z"/>
		</g>
		<g>
			<path class="st0" d="M408,93.5c0.4-0.4,0.4-1.1,0-1.5c-0.4-0.4-1.1-0.4-1.5,0c-0.4,0.4-0.4,1.1,0,1.5
				C406.9,93.9,407.6,93.9,408,93.5z"/>
		</g>
	</g>
	<g>
		<g>
			<polygon class="st0" points="381.3,75.6 403.1,75.6 410.8,83.3 410.6,83.5 403,75.9 381.5,75.9 365.2,92.1 338.6,92.1 
				338.6,91.8 365.1,91.8 			"/>
		</g>
		<g>
			<circle class="st0" cx="338.7" cy="92" r="1"/>
		</g>
		<g>
			<path class="st0" d="M409.9,84.1c0.4,0.4,1.1,0.4,1.5,0c0.4-0.4,0.4-1.1,0-1.5c-0.4-0.4-1.1-0.4-1.5,0
				C409.5,83,409.5,83.7,409.9,84.1z"/>
		</g>
	</g>
	<g>
		<g>
			<polygon class="st0" points="387.4,86.2 398.5,86.2 398.5,86.5 387.5,86.5 375.1,98.9 347.7,98.9 347.7,98.6 375,98.6 			"/>
		</g>
		<g>
			<circle class="st0" cx="347.7" cy="98.7" r="1"/>
		</g>
		<g>
			<circle class="st0" cx="398.4" cy="86.3" r="1"/>
		</g>
	</g>
	<g>
		<g>
			<polygon class="st0" points="409.9,112.9 410.1,113.1 390,133.2 337.3,133.2 337.3,132.9 389.9,132.9 			"/>
		</g>
		<g>
			<path class="st0" d="M337.3,134.1c-0.6,0-1-0.5-1-1c0-0.6,0.5-1,1-1c0.6,0,1,0.5,1,1C338.4,133.6,337.9,134.1,337.3,134.1z"/>
		</g>
		<g>
			<path class="st0" d="M410.7,113.8c0.4-0.4,0.4-1.1,0-1.5c-0.4-0.4-1.1-0.4-1.5,0c-0.4,0.4-0.4,1.1,0,1.5
				C409.7,114.2,410.3,114.2,410.7,113.8z"/>
		</g>
	</g>
	<g>
		<g>
			<polygon class="st0" points="294.1,121.8 302.5,121.8 327.2,146.5 403.9,146.5 403.9,146.8 327.1,146.8 302.4,122.1 294.2,122.1 
				284.5,131.8 257.9,131.8 250,139.6 249.8,139.4 257.8,131.5 284.4,131.5 			"/>
		</g>
		<g>
			<path class="st0" d="M250.7,140.2c-0.4,0.4-1.1,0.4-1.5,0c-0.4-0.4-0.4-1.1,0-1.5c0.4-0.4,1.1-0.4,1.5,0
				C251.1,139.2,251.1,139.8,250.7,140.2z"/>
		</g>
		<g>
			<path class="st0" d="M403.8,147.7c0.6,0,1-0.5,1-1c0-0.6-0.5-1-1-1c-0.6,0-1,0.5-1,1C402.8,147.2,403.2,147.7,403.8,147.7z"/>
		</g>
	</g>
	<g>
		<g>
			<polygon class="st0" points="294.9,129.4 303.9,129.4 327.7,153.2 407.9,153.2 407.9,153.5 327.6,153.5 303.8,129.7 295,129.7 
				288.1,136.5 259.9,136.5 252.7,143.7 252.5,143.5 259.8,136.3 288,136.3 			"/>
		</g>
		<g>
			<path class="st0" d="M253.4,144.3c-0.4,0.4-1.1,0.4-1.5,0c-0.4-0.4-0.4-1.1,0-1.5c0.4-0.4,1.1-0.4,1.5,0
				C253.8,143.2,253.8,143.9,253.4,144.3z"/>
		</g>
		<g>
			<path class="st0" d="M407.9,154.4c0.6,0,1-0.5,1-1c0-0.6-0.5-1-1-1c-0.6,0-1,0.5-1,1C406.8,154,407.3,154.4,407.9,154.4z"/>
		</g>
	</g>
	<g>
		<g>
			<polygon class="st0" points="295.4,139 295.5,139.2 286.3,148.5 257.4,148.5 257.4,148.2 286.2,148.2 			"/>
		</g>
		<g>
			<circle class="st0" cx="257.5" cy="148.4" r="1"/>
		</g>
		<g>
			<path class="st0" d="M296.1,139.9c0.4-0.4,0.4-1.1,0-1.5c-0.4-0.4-1.1-0.4-1.5,0c-0.4,0.4-0.4,1.1,0,1.5
				C295.1,140.3,295.7,140.3,296.1,139.9z"/>
		</g>
	</g>
	<g>
		<g>
			<polygon class="st0" points="319.2,200.5 347.6,200.5 369.3,222.2 369.1,222.4 347.5,200.8 319.2,200.8 			"/>
		</g>
		<g>
			<path class="st0" d="M319.3,201.7c-0.6,0-1-0.5-1-1c0-0.6,0.5-1,1-1c0.6,0,1,0.5,1,1C320.3,201.3,319.9,201.7,319.3,201.7z"/>
		</g>
		<g>
			<path class="st0" d="M368.4,223c0.4,0.4,1.1,0.4,1.5,0c0.4-0.4,0.4-1.1,0-1.5c-0.4-0.4-1.1-0.4-1.5,0
				C368,221.9,368,222.6,368.4,223z"/>
		</g>
	</g>
	<g>
		<g>
			<polygon class="st0" points="357.3,200.3 371.2,214.2 409.6,214.2 409.6,214.5 371.1,214.5 357.1,200.5 			"/>
		</g>
		<g>
			<path class="st0" d="M356.5,201.1c-0.4-0.4-0.4-1.1,0-1.5c0.4-0.4,1.1-0.4,1.5,0c0.4,0.4,0.4,1.1,0,1.5
				C357.5,201.6,356.9,201.6,356.5,201.1z"/>
		</g>
		<g>
			<circle class="st0" cx="409.6" cy="214.3" r="1"/>
		</g>
	</g>
</g>
</svg>
