<svg xmlns="http://www.w3.org/2000/svg" viewBox="0 0 1443.00005 427.83333">
  <defs>
    <style>
      .cls-1 {
        fill: none;
        stroke: #0086e7;
        stroke-miterlimit: 10;
        stroke-width: 1.5px;
      }

      .cls-2 {
        fill: #0086e7;
      }
    </style>
  </defs>
  <title>Ресурс 2</title>
  <g id="Слой_2" data-name="Слой 2">
    <g id="object">
      <g>
        <polyline class="cls-1" points="0 0.75 156 0.75 234.667 79.417 542.667 79.417 568 54.083 790.667 54.083 892.667 156.083 1137.309 156.083"/>
        <path class="cls-2" d="M1137.027,161.7229a5.63965,5.63965,0,1,0-5.63953-5.63965A5.64023,5.64023,0,0,0,1137.027,161.7229Z"/>
      </g>
      <g>
        <polyline class="cls-1" points="1443 427.083 1003 427.083 859 348.417 743 348.417 717.667 373.75 652.333 373.75 593.667 413.083 305.691 413.083"/>
        <path class="cls-2" d="M305.973,407.44368a5.63965,5.63965,0,1,0,5.63959,5.63965A5.64024,5.64024,0,0,0,305.973,407.44368Z"/>
      </g>
    </g>
  </g>
</svg>
